<svg width="1200" height="675" viewBox="0 0 1200 675" fill="none" xmlns="http://www.w3.org/2000/svg">
<!-- <path d="M344.917 466.114C341.47 466.114 338.595 465.641 336.291 464.697C334.004 463.769 332.264 462.501 331.071 460.893C329.895 459.286 329.248 457.48 329.132 455.474L339.175 454.157C339.357 454.936 339.705 455.657 340.219 456.32C340.749 456.982 341.503 457.513 342.481 457.911C343.475 458.308 344.76 458.507 346.334 458.507C348.637 458.507 350.643 457.944 352.35 456.817C354.056 455.706 355.109 453.842 355.506 451.224L356.65 444.239H356.203C355.573 445.299 354.711 446.302 353.617 447.246C352.54 448.191 351.223 448.962 349.665 449.558C348.124 450.155 346.342 450.453 344.32 450.453C341.437 450.453 338.935 449.79 336.813 448.464C334.709 447.122 333.184 445.076 332.239 442.325C331.311 439.557 331.195 436.06 331.891 431.835C332.621 427.509 333.93 423.897 335.819 420.996C337.708 418.096 339.945 415.925 342.531 414.484C345.116 413.042 347.809 412.321 350.609 412.321C352.747 412.321 354.471 412.686 355.78 413.415C357.106 414.127 358.125 415.022 358.837 416.099C359.55 417.16 360.055 418.204 360.354 419.232H360.776L361.82 412.818H372.335L365.922 451.373C365.408 454.638 364.174 457.355 362.218 459.526C360.279 461.714 357.818 463.354 354.835 464.448C351.852 465.558 348.546 466.114 344.917 466.114ZM348.894 442.499C350.585 442.499 352.101 442.076 353.443 441.231C354.802 440.369 355.937 439.143 356.849 437.552C357.76 435.944 358.398 434.022 358.763 431.785C359.127 429.548 359.119 427.609 358.738 425.968C358.373 424.311 357.661 423.027 356.6 422.115C355.556 421.204 354.181 420.748 352.474 420.748C350.717 420.748 349.176 421.22 347.85 422.165C346.524 423.093 345.422 424.385 344.544 426.043C343.682 427.7 343.078 429.614 342.729 431.785C342.365 433.989 342.348 435.895 342.68 437.502C343.028 439.093 343.716 440.328 344.743 441.206C345.77 442.068 347.154 442.499 348.894 442.499ZM374.399 451L380.762 412.818H391.028L389.91 419.48H390.308C391.401 417.11 392.868 415.321 394.707 414.111C396.564 412.884 398.56 412.271 400.698 412.271C401.229 412.271 401.784 412.304 402.364 412.371C402.96 412.42 403.491 412.503 403.955 412.619L402.364 422.04C401.9 421.875 401.237 421.742 400.375 421.643C399.53 421.527 398.726 421.469 397.964 421.469C396.423 421.469 394.989 421.808 393.663 422.488C392.338 423.151 391.219 424.079 390.308 425.272C389.413 426.465 388.824 427.841 388.543 429.398L384.988 451H374.399ZM418.565 451.746C414.67 451.746 411.447 450.917 408.895 449.26C406.343 447.586 404.545 445.266 403.501 442.3C402.474 439.317 402.283 435.845 402.929 431.884C403.559 427.973 404.868 424.551 406.857 421.618C408.845 418.685 411.373 416.406 414.438 414.782C417.504 413.141 420.96 412.321 424.804 412.321C428.682 412.321 431.897 413.158 434.449 414.832C437.001 416.489 438.799 418.809 439.843 421.792C440.887 424.775 441.086 428.247 440.44 432.207C439.794 436.102 438.468 439.516 436.463 442.449C434.457 445.382 431.93 447.669 428.881 449.31C425.832 450.934 422.393 451.746 418.565 451.746ZM419.609 443.543C421.399 443.543 422.981 443.037 424.357 442.026C425.749 440.999 426.901 439.607 427.812 437.85C428.74 436.077 429.386 434.072 429.751 431.835C430.116 429.63 430.14 427.675 429.826 425.968C429.511 424.245 428.848 422.886 427.837 421.891C426.843 420.897 425.475 420.4 423.735 420.4C421.946 420.4 420.355 420.914 418.963 421.941C417.571 422.952 416.419 424.344 415.507 426.117C414.596 427.89 413.958 429.904 413.593 432.158C413.245 434.345 413.22 436.301 413.519 438.024C413.817 439.731 414.472 441.082 415.483 442.076C416.493 443.054 417.869 443.543 419.609 443.543ZM471.388 434.743L475.042 412.818H485.632L479.268 451H469.101L470.245 444.065H469.847C468.67 446.302 466.955 448.1 464.701 449.459C462.447 450.818 459.887 451.497 457.02 451.497C454.468 451.497 452.314 450.917 450.557 449.757C448.817 448.597 447.582 446.948 446.853 444.81C446.124 442.673 446 440.112 446.48 437.129L450.557 412.818H461.147L457.418 435.24C457.07 437.494 457.385 439.275 458.362 440.585C459.34 441.894 460.832 442.548 462.837 442.548C464.113 442.548 465.348 442.258 466.541 441.678C467.751 441.082 468.795 440.203 469.673 439.043C470.551 437.883 471.123 436.45 471.388 434.743ZM502.057 428.926L498.378 451H487.813L494.177 412.818H504.244L503.15 419.555H503.573C504.783 417.317 506.49 415.553 508.694 414.26C510.914 412.967 513.441 412.321 516.275 412.321C518.927 412.321 521.139 412.901 522.912 414.061C524.702 415.221 525.962 416.87 526.691 419.008C527.437 421.146 527.561 423.706 527.064 426.689L522.987 451H512.397L516.151 428.578C516.532 426.241 516.234 424.419 515.256 423.109C514.295 421.784 512.745 421.121 510.608 421.121C509.183 421.121 507.873 421.427 506.68 422.04C505.487 422.654 504.484 423.549 503.672 424.725C502.877 425.885 502.338 427.286 502.057 428.926ZM545.303 451.621C542.387 451.621 539.876 450.876 537.771 449.384C535.683 447.876 534.192 445.664 533.297 442.747C532.418 439.814 532.336 436.218 533.048 431.959C533.777 427.584 535.087 423.946 536.976 421.046C538.865 418.129 541.102 415.95 543.687 414.509C546.273 413.05 548.966 412.321 551.766 412.321C553.887 412.321 555.603 412.686 556.912 413.415C558.238 414.127 559.257 415.022 559.969 416.099C560.682 417.16 561.179 418.204 561.461 419.232H561.784L564.991 400.091H575.555L567.104 451H556.663L557.682 444.885H557.235C556.572 445.946 555.694 446.998 554.6 448.042C553.523 449.069 552.214 449.923 550.672 450.602C549.148 451.282 547.358 451.621 545.303 451.621ZM549.976 443.195C551.667 443.195 553.191 442.731 554.55 441.803C555.909 440.858 557.053 439.54 557.981 437.85C558.909 436.16 559.555 434.179 559.92 431.909C560.301 429.639 560.309 427.667 559.945 425.993C559.58 424.319 558.867 423.027 557.807 422.115C556.763 421.204 555.379 420.748 553.655 420.748C551.915 420.748 550.374 421.22 549.032 422.165C547.706 423.109 546.604 424.419 545.726 426.092C544.864 427.766 544.251 429.705 543.886 431.909C543.522 434.13 543.497 436.094 543.812 437.8C544.127 439.491 544.798 440.817 545.825 441.778C546.853 442.722 548.236 443.195 549.976 443.195ZM602.458 412.818L601.14 420.773H578.122L579.464 412.818H602.458ZM586.176 403.67H596.765L590.849 439.267C590.683 440.245 590.708 441.007 590.924 441.554C591.139 442.084 591.495 442.457 591.993 442.673C592.506 442.888 593.12 442.996 593.832 442.996C594.329 442.996 594.835 442.954 595.348 442.871C595.862 442.772 596.252 442.697 596.517 442.648L596.915 450.528C596.318 450.71 595.514 450.909 594.503 451.124C593.509 451.34 592.332 451.472 590.973 451.522C588.388 451.621 586.201 451.282 584.411 450.503C582.621 449.707 581.337 448.489 580.558 446.849C579.779 445.208 579.613 443.145 580.061 440.659L586.176 403.67ZM613.781 451.721C611.361 451.721 609.265 451.298 607.492 450.453C605.735 449.591 604.442 448.315 603.614 446.625C602.785 444.935 602.578 442.838 602.992 440.336C603.357 438.215 604.045 436.442 605.055 435.016C606.083 433.575 607.334 432.415 608.809 431.536C610.284 430.658 611.916 429.987 613.706 429.523C615.512 429.059 617.377 428.744 619.299 428.578C621.52 428.346 623.326 428.122 624.718 427.907C626.127 427.692 627.179 427.385 627.875 426.987C628.571 426.573 628.994 425.96 629.143 425.148V424.999C629.391 423.441 629.101 422.231 628.273 421.369C627.461 420.491 626.16 420.052 624.37 420.052C622.481 420.052 620.873 420.466 619.548 421.295C618.238 422.123 617.302 423.176 616.739 424.452L607.094 423.656C607.956 421.336 609.256 419.331 610.997 417.641C612.753 415.934 614.866 414.625 617.335 413.713C619.805 412.785 622.572 412.321 625.638 412.321C627.759 412.321 629.739 412.57 631.579 413.067C633.435 413.564 635.034 414.335 636.377 415.379C637.735 416.423 638.713 417.765 639.31 419.406C639.923 421.03 640.047 422.977 639.683 425.247L635.382 451H625.34L626.234 445.705H625.936C625.124 446.898 624.13 447.951 622.953 448.862C621.777 449.757 620.426 450.461 618.901 450.975C617.377 451.472 615.67 451.721 613.781 451.721ZM618.031 444.413C619.573 444.413 620.989 444.106 622.282 443.493C623.591 442.863 624.668 442.018 625.514 440.957C626.375 439.897 626.922 438.695 627.154 437.353L627.801 433.301C627.469 433.517 626.988 433.707 626.359 433.873C625.746 434.039 625.074 434.196 624.345 434.345C623.633 434.478 622.912 434.602 622.183 434.718C621.453 434.817 620.799 434.917 620.219 435.016C618.943 435.199 617.799 435.489 616.788 435.886C615.778 436.284 614.957 436.823 614.328 437.502C613.698 438.165 613.308 438.994 613.159 439.988C612.927 441.43 613.267 442.532 614.178 443.294C615.106 444.04 616.391 444.413 618.031 444.413ZM662.639 400.091L654.187 451H643.598L652.049 400.091H662.639ZM674.08 440.013L676.193 427.31H677.734L692.425 412.818H704.581L684.992 432.009H682.457L674.08 440.013ZM662.67 451L671.122 400.091H681.711L673.259 451H662.67ZM686.534 451L678.082 434.37L686.36 426.888L698.938 451H686.534ZM710.074 451.646C708.4 451.646 707.025 451.066 705.948 449.906C704.887 448.746 704.407 447.338 704.506 445.68C704.622 444.04 705.31 442.656 706.569 441.529C707.845 440.386 709.312 439.814 710.969 439.814C712.56 439.814 713.902 440.386 714.996 441.529C716.09 442.673 716.57 444.056 716.438 445.68C716.355 446.774 715.999 447.777 715.369 448.688C714.756 449.583 713.977 450.304 713.032 450.851C712.088 451.381 711.102 451.646 710.074 451.646ZM743.303 400.091L734.851 451H724.262L732.714 400.091H743.303ZM754.122 451.721C751.703 451.721 749.607 451.298 747.833 450.453C746.077 449.591 744.784 448.315 743.956 446.625C743.127 444.935 742.92 442.838 743.334 440.336C743.699 438.215 744.386 436.442 745.397 435.016C746.425 433.575 747.676 432.415 749.151 431.536C750.626 430.658 752.258 429.987 754.048 429.523C755.854 429.059 757.719 428.744 759.641 428.578C761.862 428.346 763.668 428.122 765.06 427.907C766.469 427.692 767.521 427.385 768.217 426.987C768.913 426.573 769.335 425.96 769.485 425.148V424.999C769.733 423.441 769.443 422.231 768.615 421.369C767.803 420.491 766.502 420.052 764.712 420.052C762.823 420.052 761.215 420.466 759.889 421.295C758.58 422.123 757.644 423.176 757.081 424.452L747.436 423.656C748.297 421.336 749.598 419.331 751.338 417.641C753.095 415.934 755.208 414.625 757.677 413.713C760.146 412.785 762.914 412.321 765.98 412.321C768.101 412.321 770.081 412.57 771.921 413.067C773.777 413.564 775.376 414.335 776.718 415.379C778.077 416.423 779.055 417.765 779.652 419.406C780.265 421.03 780.389 422.977 780.024 425.247L775.724 451H765.681L766.576 445.705H766.278C765.466 446.898 764.472 447.951 763.295 448.862C762.118 449.757 760.768 450.461 759.243 450.975C757.719 451.472 756.012 451.721 754.122 451.721ZM758.373 444.413C759.914 444.413 761.331 444.106 762.624 443.493C763.933 442.863 765.01 442.018 765.855 440.957C766.717 439.897 767.264 438.695 767.496 437.353L768.142 433.301C767.811 433.517 767.33 433.707 766.701 433.873C766.087 434.039 765.416 434.196 764.687 434.345C763.974 434.478 763.254 434.602 762.524 434.718C761.795 434.817 761.141 434.917 760.561 435.016C759.285 435.199 758.141 435.489 757.13 435.886C756.119 436.284 755.299 436.823 754.669 437.502C754.04 438.165 753.65 438.994 753.501 439.988C753.269 441.43 753.609 442.532 754.52 443.294C755.448 444.04 756.733 444.413 758.373 444.413ZM798.258 428.926L794.579 451H784.014L790.378 412.818H800.445L799.351 419.555H799.774C800.984 417.317 802.691 415.553 804.895 414.26C807.115 412.967 809.643 412.321 812.476 412.321C815.128 412.321 817.34 412.901 819.114 414.061C820.903 415.221 822.163 416.87 822.892 419.008C823.638 421.146 823.762 423.706 823.265 426.689L819.188 451H808.599L812.352 428.578C812.733 426.241 812.435 424.419 811.457 423.109C810.496 421.784 808.947 421.121 806.809 421.121C805.384 421.121 804.074 421.427 802.881 422.04C801.688 422.654 800.686 423.549 799.873 424.725C799.078 425.885 798.539 427.286 798.258 428.926ZM841.504 451.621C838.588 451.621 836.077 450.876 833.972 449.384C831.884 447.876 830.393 445.664 829.498 442.747C828.62 439.814 828.537 436.218 829.249 431.959C829.979 427.584 831.288 423.946 833.177 421.046C835.066 418.129 837.303 415.95 839.889 414.509C842.474 413.05 845.167 412.321 847.967 412.321C850.089 412.321 851.804 412.686 853.113 413.415C854.439 414.127 855.458 415.022 856.171 416.099C856.883 417.16 857.38 418.204 857.662 419.232H857.985L861.192 400.091H871.756L863.305 451H852.864L853.884 444.885H853.436C852.773 445.946 851.895 446.998 850.801 448.042C849.724 449.069 848.415 449.923 846.874 450.602C845.349 451.282 843.559 451.621 841.504 451.621ZM846.178 443.195C847.868 443.195 849.393 442.731 850.752 441.803C852.11 440.858 853.254 439.54 854.182 437.85C855.11 436.16 855.756 434.179 856.121 431.909C856.502 429.639 856.51 427.667 856.146 425.993C855.781 424.319 855.069 423.027 854.008 422.115C852.964 421.204 851.58 420.748 849.857 420.748C848.117 420.748 846.575 421.22 845.233 422.165C843.907 423.109 842.805 424.419 841.927 426.092C841.065 427.766 840.452 429.705 840.087 431.909C839.723 434.13 839.698 436.094 840.013 437.8C840.328 439.491 840.999 440.817 842.026 441.778C843.054 442.722 844.438 443.195 846.178 443.195Z" fill="black"/> -->
<!-- <path d="M244.327 250H239.249L253.937 210H258.937L273.624 250H268.546L256.593 216.328H256.28L244.327 250ZM246.202 234.375H266.671V238.672H246.202V234.375ZM306.886 250.625C304.073 250.625 301.651 249.961 299.62 248.633C297.589 247.305 296.026 245.475 294.933 243.145C293.839 240.814 293.292 238.151 293.292 235.156C293.292 232.109 293.852 229.421 294.972 227.09C296.104 224.746 297.68 222.917 299.698 221.602C301.729 220.273 304.099 219.609 306.808 219.609C308.917 219.609 310.818 220 312.511 220.781C314.203 221.562 315.59 222.656 316.671 224.062C317.752 225.469 318.422 227.109 318.683 228.984H314.073C313.722 227.617 312.94 226.406 311.729 225.352C310.532 224.284 308.917 223.75 306.886 223.75C305.089 223.75 303.513 224.219 302.159 225.156C300.818 226.081 299.77 227.389 299.015 229.082C298.272 230.762 297.901 232.734 297.901 235C297.901 237.318 298.266 239.336 298.995 241.055C299.737 242.773 300.779 244.108 302.12 245.059C303.474 246.009 305.063 246.484 306.886 246.484C308.084 246.484 309.171 246.276 310.147 245.859C311.124 245.443 311.951 244.844 312.628 244.062C313.305 243.281 313.787 242.344 314.073 241.25H318.683C318.422 243.021 317.778 244.616 316.749 246.035C315.733 247.441 314.386 248.561 312.706 249.395C311.039 250.215 309.099 250.625 306.886 250.625ZM337.608 250.625C334.9 250.625 332.524 249.98 330.479 248.691C328.448 247.402 326.86 245.599 325.714 243.281C324.581 240.964 324.015 238.255 324.015 235.156C324.015 232.031 324.581 229.303 325.714 226.973C326.86 224.642 328.448 222.832 330.479 221.543C332.524 220.254 334.9 219.609 337.608 219.609C340.317 219.609 342.687 220.254 344.718 221.543C346.762 222.832 348.351 224.642 349.483 226.973C350.629 229.303 351.202 232.031 351.202 235.156C351.202 238.255 350.629 240.964 349.483 243.281C348.351 245.599 346.762 247.402 344.718 248.691C342.687 249.98 340.317 250.625 337.608 250.625ZM337.608 246.484C339.666 246.484 341.358 245.957 342.687 244.902C344.015 243.848 344.998 242.461 345.636 240.742C346.274 239.023 346.593 237.161 346.593 235.156C346.593 233.151 346.274 231.283 345.636 229.551C344.998 227.819 344.015 226.419 342.687 225.352C341.358 224.284 339.666 223.75 337.608 223.75C335.551 223.75 333.858 224.284 332.53 225.352C331.202 226.419 330.219 227.819 329.581 229.551C328.943 231.283 328.624 233.151 328.624 235.156C328.624 237.161 328.943 239.023 329.581 240.742C330.219 242.461 331.202 243.848 332.53 244.902C333.858 245.957 335.551 246.484 337.608 246.484ZM370.426 250.625C367.717 250.625 365.341 249.98 363.297 248.691C361.266 247.402 359.677 245.599 358.531 243.281C357.398 240.964 356.832 238.255 356.832 235.156C356.832 232.031 357.398 229.303 358.531 226.973C359.677 224.642 361.266 222.832 363.297 221.543C365.341 220.254 367.717 219.609 370.426 219.609C373.134 219.609 375.504 220.254 377.535 221.543C379.579 222.832 381.168 224.642 382.301 226.973C383.447 229.303 384.02 232.031 384.02 235.156C384.02 238.255 383.447 240.964 382.301 243.281C381.168 245.599 379.579 247.402 377.535 248.691C375.504 249.98 373.134 250.625 370.426 250.625ZM370.426 246.484C372.483 246.484 374.176 245.957 375.504 244.902C376.832 243.848 377.815 242.461 378.453 240.742C379.091 239.023 379.41 237.161 379.41 235.156C379.41 233.151 379.091 231.283 378.453 229.551C377.815 227.819 376.832 226.419 375.504 225.352C374.176 224.284 372.483 223.75 370.426 223.75C368.368 223.75 366.676 224.284 365.348 225.352C364.02 226.419 363.036 227.819 362.398 229.551C361.76 231.283 361.441 233.151 361.441 235.156C361.441 237.161 361.76 239.023 362.398 240.742C363.036 242.461 364.02 243.848 365.348 244.902C366.676 245.957 368.368 246.484 370.426 246.484ZM391.056 261.25V220H395.509V224.766H396.056C396.394 224.245 396.863 223.581 397.462 222.773C398.074 221.953 398.946 221.224 400.079 220.586C401.225 219.935 402.774 219.609 404.728 219.609C407.254 219.609 409.48 220.241 411.407 221.504C413.334 222.767 414.838 224.557 415.919 226.875C417 229.193 417.54 231.927 417.54 235.078C417.54 238.255 417 241.009 415.919 243.34C414.838 245.658 413.341 247.454 411.427 248.73C409.513 249.993 407.306 250.625 404.806 250.625C402.879 250.625 401.336 250.306 400.177 249.668C399.018 249.017 398.126 248.281 397.501 247.461C396.876 246.628 396.394 245.937 396.056 245.391H395.665V261.25H391.056ZM395.587 235C395.587 237.266 395.919 239.264 396.583 240.996C397.247 242.715 398.217 244.062 399.493 245.039C400.769 246.003 402.332 246.484 404.181 246.484C406.108 246.484 407.716 245.977 409.005 244.961C410.307 243.932 411.284 242.552 411.935 240.82C412.599 239.076 412.931 237.135 412.931 235C412.931 232.891 412.605 230.99 411.954 229.297C411.316 227.591 410.346 226.243 409.044 225.254C407.755 224.251 406.134 223.75 404.181 223.75C402.306 223.75 400.73 224.225 399.454 225.176C398.178 226.113 397.215 227.428 396.563 229.121C395.912 230.801 395.587 232.76 395.587 235ZM437.149 250.625C434.259 250.625 431.765 249.987 429.669 248.711C427.586 247.422 425.978 245.625 424.845 243.32C423.725 241.003 423.165 238.307 423.165 235.234C423.165 232.161 423.725 229.453 424.845 227.109C425.978 224.753 427.553 222.917 429.571 221.602C431.603 220.273 433.972 219.609 436.681 219.609C438.243 219.609 439.786 219.87 441.31 220.391C442.833 220.911 444.22 221.758 445.47 222.93C446.72 224.089 447.716 225.625 448.458 227.539C449.2 229.453 449.571 231.81 449.571 234.609V236.562H426.446V232.578H444.884C444.884 230.885 444.545 229.375 443.868 228.047C443.204 226.719 442.254 225.671 441.017 224.902C439.793 224.134 438.347 223.75 436.681 223.75C434.845 223.75 433.256 224.206 431.915 225.117C430.587 226.016 429.565 227.187 428.849 228.633C428.132 230.078 427.774 231.628 427.774 233.281V235.938C427.774 238.203 428.165 240.124 428.946 241.699C429.741 243.262 430.841 244.453 432.247 245.273C433.653 246.081 435.287 246.484 437.149 246.484C438.36 246.484 439.454 246.315 440.431 245.977C441.42 245.625 442.273 245.104 442.989 244.414C443.705 243.711 444.259 242.839 444.649 241.797L449.103 243.047C448.634 244.557 447.846 245.885 446.739 247.031C445.632 248.164 444.265 249.049 442.638 249.687C441.01 250.313 439.181 250.625 437.149 250.625ZM456.583 250V220H461.036V224.531H461.349C461.896 223.047 462.885 221.842 464.317 220.918C465.75 219.993 467.364 219.531 469.161 219.531C469.5 219.531 469.923 219.538 470.431 219.551C470.938 219.564 471.323 219.583 471.583 219.609V224.297C471.427 224.258 471.069 224.199 470.509 224.121C469.962 224.03 469.382 223.984 468.771 223.984C467.312 223.984 466.01 224.29 464.864 224.902C463.731 225.501 462.833 226.335 462.169 227.402C461.518 228.457 461.192 229.661 461.192 231.016V250H456.583ZM485.875 250.703C483.974 250.703 482.249 250.345 480.699 249.629C479.15 248.9 477.919 247.852 477.008 246.484C476.096 245.104 475.641 243.437 475.641 241.484C475.641 239.766 475.979 238.372 476.656 237.305C477.333 236.224 478.238 235.378 479.371 234.766C480.504 234.154 481.754 233.698 483.121 233.398C484.501 233.086 485.888 232.839 487.281 232.656C489.104 232.422 490.582 232.246 491.715 232.129C492.861 231.999 493.694 231.784 494.215 231.484C494.749 231.185 495.016 230.664 495.016 229.922V229.766C495.016 227.839 494.488 226.341 493.434 225.273C492.392 224.206 490.81 223.672 488.688 223.672C486.487 223.672 484.762 224.154 483.512 225.117C482.262 226.081 481.383 227.109 480.875 228.203L476.5 226.641C477.281 224.818 478.323 223.398 479.625 222.383C480.94 221.354 482.372 220.638 483.922 220.234C485.484 219.818 487.021 219.609 488.531 219.609C489.495 219.609 490.602 219.727 491.852 219.961C493.115 220.182 494.332 220.645 495.504 221.348C496.689 222.051 497.672 223.112 498.453 224.531C499.234 225.951 499.625 227.852 499.625 230.234V250H495.016V245.937H494.781C494.469 246.589 493.948 247.285 493.219 248.027C492.49 248.77 491.52 249.401 490.309 249.922C489.098 250.443 487.62 250.703 485.875 250.703ZM486.578 246.562C488.401 246.562 489.938 246.204 491.188 245.488C492.451 244.772 493.401 243.848 494.039 242.715C494.69 241.582 495.016 240.391 495.016 239.141V234.922C494.82 235.156 494.391 235.371 493.727 235.566C493.076 235.749 492.32 235.911 491.461 236.055C490.615 236.185 489.788 236.302 488.98 236.406C488.186 236.497 487.542 236.576 487.047 236.641C485.849 236.797 484.729 237.051 483.688 237.402C482.659 237.741 481.826 238.255 481.188 238.945C480.563 239.622 480.25 240.547 480.25 241.719C480.25 243.32 480.842 244.531 482.027 245.352C483.225 246.159 484.742 246.562 486.578 246.562ZM521.085 220V223.906H505.538V220H521.085ZM510.069 212.812H514.679V241.406C514.679 242.708 514.868 243.685 515.245 244.336C515.636 244.974 516.131 245.404 516.729 245.625C517.341 245.833 517.986 245.937 518.663 245.937C519.171 245.937 519.588 245.911 519.913 245.859C520.239 245.794 520.499 245.742 520.694 245.703L521.632 249.844C521.319 249.961 520.883 250.078 520.323 250.195C519.763 250.326 519.054 250.391 518.194 250.391C516.892 250.391 515.616 250.111 514.366 249.551C513.129 248.991 512.101 248.138 511.28 246.992C510.473 245.846 510.069 244.401 510.069 242.656V212.812ZM528.019 250V220H532.628V250H528.019ZM530.362 215C529.464 215 528.689 214.694 528.038 214.082C527.4 213.47 527.081 212.734 527.081 211.875C527.081 211.016 527.4 210.28 528.038 209.668C528.689 209.056 529.464 208.75 530.362 208.75C531.261 208.75 532.029 209.056 532.667 209.668C533.318 210.28 533.644 211.016 533.644 211.875C533.644 212.734 533.318 213.47 532.667 214.082C532.029 214.694 531.261 215 530.362 215ZM565.602 220L554.508 250H549.82L538.727 220H543.727L552.008 243.906H552.32L560.602 220H565.602ZM583.189 250.625C580.299 250.625 577.805 249.987 575.709 248.711C573.626 247.422 572.018 245.625 570.885 243.32C569.765 241.003 569.205 238.307 569.205 235.234C569.205 232.161 569.765 229.453 570.885 227.109C572.018 224.753 573.593 222.917 575.611 221.602C577.643 220.273 580.012 219.609 582.721 219.609C584.283 219.609 585.826 219.87 587.35 220.391C588.873 220.911 590.26 221.758 591.51 222.93C592.76 224.089 593.756 225.625 594.498 227.539C595.24 229.453 595.611 231.81 595.611 234.609V236.562H572.486V232.578H590.924C590.924 230.885 590.585 229.375 589.908 228.047C589.244 226.719 588.294 225.671 587.057 224.902C585.833 224.134 584.387 223.75 582.721 223.75C580.885 223.75 579.296 224.206 577.955 225.117C576.627 226.016 575.605 227.187 574.889 228.633C574.173 230.078 573.814 231.628 573.814 233.281V235.938C573.814 238.203 574.205 240.124 574.986 241.699C575.781 243.262 576.881 244.453 578.287 245.273C579.693 246.081 581.327 246.484 583.189 246.484C584.4 246.484 585.494 246.315 586.471 245.977C587.46 245.625 588.313 245.104 589.029 244.414C589.745 243.711 590.299 242.839 590.689 241.797L595.143 243.047C594.674 244.557 593.886 245.885 592.779 247.031C591.673 248.164 590.305 249.049 588.678 249.687C587.05 250.313 585.221 250.625 583.189 250.625ZM639.342 226.719L635.201 227.891C634.941 227.201 634.557 226.53 634.049 225.879C633.554 225.215 632.877 224.668 632.018 224.238C631.158 223.809 630.058 223.594 628.717 223.594C626.881 223.594 625.351 224.017 624.127 224.863C622.916 225.697 622.311 226.758 622.311 228.047C622.311 229.193 622.727 230.098 623.561 230.762C624.394 231.426 625.696 231.979 627.467 232.422L631.92 233.516C634.602 234.167 636.601 235.163 637.916 236.504C639.231 237.832 639.889 239.544 639.889 241.641C639.889 243.359 639.394 244.896 638.404 246.25C637.428 247.604 636.061 248.672 634.303 249.453C632.545 250.234 630.501 250.625 628.17 250.625C625.11 250.625 622.577 249.961 620.572 248.633C618.567 247.305 617.298 245.365 616.764 242.812L621.139 241.719C621.555 243.333 622.343 244.544 623.502 245.352C624.674 246.159 626.204 246.562 628.092 246.562C630.24 246.562 631.946 246.107 633.209 245.195C634.485 244.271 635.123 243.164 635.123 241.875C635.123 240.833 634.758 239.961 634.029 239.258C633.3 238.542 632.18 238.008 630.67 237.656L625.67 236.484C622.923 235.833 620.904 234.824 619.615 233.457C618.339 232.077 617.701 230.352 617.701 228.281C617.701 226.589 618.176 225.091 619.127 223.789C620.09 222.487 621.399 221.465 623.053 220.723C624.719 219.98 626.607 219.609 628.717 219.609C631.686 219.609 634.016 220.26 635.709 221.562C637.415 222.865 638.626 224.583 639.342 226.719ZM659.015 250.625C656.306 250.625 653.93 249.98 651.886 248.691C649.854 247.402 648.266 245.599 647.12 243.281C645.987 240.964 645.421 238.255 645.421 235.156C645.421 232.031 645.987 229.303 647.12 226.973C648.266 224.642 649.854 222.832 651.886 221.543C653.93 220.254 656.306 219.609 659.015 219.609C661.723 219.609 664.093 220.254 666.124 221.543C668.168 222.832 669.757 224.642 670.89 226.973C672.035 229.303 672.608 232.031 672.608 235.156C672.608 238.255 672.035 240.964 670.89 243.281C669.757 245.599 668.168 247.402 666.124 248.691C664.093 249.98 661.723 250.625 659.015 250.625ZM659.015 246.484C661.072 246.484 662.765 245.957 664.093 244.902C665.421 243.848 666.404 242.461 667.042 240.742C667.68 239.023 667.999 237.161 667.999 235.156C667.999 233.151 667.68 231.283 667.042 229.551C666.404 227.819 665.421 226.419 664.093 225.352C662.765 224.284 661.072 223.75 659.015 223.75C656.957 223.75 655.265 224.284 653.937 225.352C652.608 226.419 651.625 227.819 650.987 229.551C650.349 231.283 650.03 233.151 650.03 235.156C650.03 237.161 650.349 239.023 650.987 240.742C651.625 242.461 652.608 243.848 653.937 244.902C655.265 245.957 656.957 246.484 659.015 246.484ZM691.832 250.625C689.02 250.625 686.598 249.961 684.566 248.633C682.535 247.305 680.973 245.475 679.879 243.145C678.785 240.814 678.238 238.151 678.238 235.156C678.238 232.109 678.798 229.421 679.918 227.09C681.051 224.746 682.626 222.917 684.645 221.602C686.676 220.273 689.046 219.609 691.754 219.609C693.863 219.609 695.764 220 697.457 220.781C699.15 221.562 700.536 222.656 701.617 224.062C702.698 225.469 703.368 227.109 703.629 228.984H699.02C698.668 227.617 697.887 226.406 696.676 225.352C695.478 224.284 693.863 223.75 691.832 223.75C690.035 223.75 688.46 224.219 687.105 225.156C685.764 226.081 684.716 227.389 683.961 229.082C683.219 230.762 682.848 232.734 682.848 235C682.848 237.318 683.212 239.336 683.941 241.055C684.684 242.773 685.725 244.108 687.066 245.059C688.421 246.009 690.009 246.484 691.832 246.484C693.03 246.484 694.117 246.276 695.094 245.859C696.07 245.443 696.897 244.844 697.574 244.062C698.251 243.281 698.733 242.344 699.02 241.25H703.629C703.368 243.021 702.724 244.616 701.695 246.035C700.68 247.441 699.332 248.561 697.652 249.395C695.986 250.215 694.046 250.625 691.832 250.625ZM710.367 250V220H714.977V250H710.367ZM712.711 215C711.813 215 711.038 214.694 710.387 214.082C709.749 213.47 709.43 212.734 709.43 211.875C709.43 211.016 709.749 210.28 710.387 209.668C711.038 209.056 711.813 208.75 712.711 208.75C713.609 208.75 714.378 209.056 715.016 209.668C715.667 210.28 715.992 211.016 715.992 211.875C715.992 212.734 715.667 213.47 715.016 214.082C714.378 214.694 713.609 215 712.711 215ZM732.247 250.703C730.346 250.703 728.621 250.345 727.071 249.629C725.522 248.9 724.291 247.852 723.38 246.484C722.468 245.104 722.013 243.437 722.013 241.484C722.013 239.766 722.351 238.372 723.028 237.305C723.705 236.224 724.61 235.378 725.743 234.766C726.876 234.154 728.126 233.698 729.493 233.398C730.873 233.086 732.26 232.839 733.653 232.656C735.476 232.422 736.954 232.246 738.087 232.129C739.233 231.999 740.066 231.784 740.587 231.484C741.121 231.185 741.388 230.664 741.388 229.922V229.766C741.388 227.839 740.86 226.341 739.806 225.273C738.764 224.206 737.182 223.672 735.06 223.672C732.859 223.672 731.134 224.154 729.884 225.117C728.634 226.081 727.755 227.109 727.247 228.203L722.872 226.641C723.653 224.818 724.695 223.398 725.997 222.383C727.312 221.354 728.744 220.638 730.294 220.234C731.856 219.818 733.393 219.609 734.903 219.609C735.867 219.609 736.974 219.727 738.224 219.961C739.487 220.182 740.704 220.645 741.876 221.348C743.061 222.051 744.044 223.112 744.825 224.531C745.606 225.951 745.997 227.852 745.997 230.234V250H741.388V245.937H741.153C740.841 246.589 740.32 247.285 739.591 248.027C738.862 248.77 737.892 249.401 736.681 249.922C735.47 250.443 733.992 250.703 732.247 250.703ZM732.95 246.562C734.773 246.562 736.31 246.204 737.56 245.488C738.823 244.772 739.773 243.848 740.411 242.715C741.062 241.582 741.388 240.391 741.388 239.141V234.922C741.192 235.156 740.763 235.371 740.099 235.566C739.448 235.749 738.692 235.911 737.833 236.055C736.987 236.185 736.16 236.302 735.353 236.406C734.558 236.497 733.914 236.576 733.419 236.641C732.221 236.797 731.101 237.051 730.06 237.402C729.031 237.741 728.198 238.255 727.56 238.945C726.935 239.622 726.622 240.547 726.622 241.719C726.622 243.32 727.215 244.531 728.399 245.352C729.597 246.159 731.114 246.562 732.95 246.562ZM759.02 210V250H754.41V210H759.02ZM787.54 231.953V250H782.931V220H787.384V224.687H787.774C788.478 223.164 789.545 221.94 790.978 221.016C792.41 220.078 794.259 219.609 796.524 219.609C798.556 219.609 800.333 220.026 801.856 220.859C803.38 221.68 804.565 222.93 805.411 224.609C806.257 226.276 806.681 228.385 806.681 230.938V250H802.071V231.25C802.071 228.893 801.459 227.057 800.235 225.742C799.011 224.414 797.332 223.75 795.196 223.75C793.725 223.75 792.41 224.069 791.251 224.707C790.105 225.345 789.2 226.276 788.536 227.5C787.872 228.724 787.54 230.208 787.54 231.953ZM827.682 250.625C824.791 250.625 822.298 249.987 820.201 248.711C818.118 247.422 816.51 245.625 815.377 243.32C814.257 241.003 813.697 238.307 813.697 235.234C813.697 232.161 814.257 229.453 815.377 227.109C816.51 224.753 818.085 222.917 820.104 221.602C822.135 220.273 824.505 219.609 827.213 219.609C828.775 219.609 830.318 219.87 831.842 220.391C833.365 220.911 834.752 221.758 836.002 222.93C837.252 224.089 838.248 225.625 838.99 227.539C839.732 229.453 840.104 231.81 840.104 234.609V236.562H816.979V232.578H835.416C835.416 230.885 835.077 229.375 834.4 228.047C833.736 226.719 832.786 225.671 831.549 224.902C830.325 224.134 828.88 223.75 827.213 223.75C825.377 223.75 823.788 224.206 822.447 225.117C821.119 226.016 820.097 227.187 819.381 228.633C818.665 230.078 818.307 231.628 818.307 233.281V235.938C818.307 238.203 818.697 240.124 819.479 241.699C820.273 243.262 821.373 244.453 822.779 245.273C824.186 246.081 825.82 246.484 827.682 246.484C828.893 246.484 829.986 246.315 830.963 245.977C831.952 245.625 832.805 245.104 833.521 244.414C834.238 243.711 834.791 242.839 835.182 241.797L839.635 243.047C839.166 244.557 838.378 245.885 837.271 247.031C836.165 248.164 834.798 249.049 833.17 249.687C831.542 250.313 829.713 250.625 827.682 250.625ZM860.162 220V223.906H844.615V220H860.162ZM849.146 212.812H853.756V241.406C853.756 242.708 853.945 243.685 854.322 244.336C854.713 244.974 855.208 245.404 855.807 245.625C856.419 245.833 857.063 245.937 857.74 245.937C858.248 245.937 858.665 245.911 858.99 245.859C859.316 245.794 859.576 245.742 859.771 245.703L860.709 249.844C860.396 249.961 859.96 250.078 859.4 250.195C858.84 250.326 858.131 250.391 857.271 250.391C855.969 250.391 854.693 250.111 853.443 249.551C852.206 248.991 851.178 248.138 850.357 246.992C849.55 245.846 849.146 244.401 849.146 242.656V212.812ZM873.893 250L864.752 220H869.596L876.08 242.969H876.393L882.799 220H887.721L894.049 242.891H894.361L900.846 220H905.689L896.549 250H892.018L885.455 226.953H884.986L878.424 250H873.893ZM922.95 250.625C920.242 250.625 917.866 249.98 915.821 248.691C913.79 247.402 912.201 245.599 911.056 243.281C909.923 240.964 909.356 238.255 909.356 235.156C909.356 232.031 909.923 229.303 911.056 226.973C912.201 224.642 913.79 222.832 915.821 221.543C917.866 220.254 920.242 219.609 922.95 219.609C925.659 219.609 928.028 220.254 930.06 221.543C932.104 222.832 933.692 224.642 934.825 226.973C935.971 229.303 936.544 232.031 936.544 235.156C936.544 238.255 935.971 240.964 934.825 243.281C933.692 245.599 932.104 247.402 930.06 248.691C928.028 249.98 925.659 250.625 922.95 250.625ZM922.95 246.484C925.007 246.484 926.7 245.957 928.028 244.902C929.356 243.848 930.34 242.461 930.978 240.742C931.616 239.023 931.935 237.161 931.935 235.156C931.935 233.151 931.616 231.283 930.978 229.551C930.34 227.819 929.356 226.419 928.028 225.352C926.7 224.284 925.007 223.75 922.95 223.75C920.893 223.75 919.2 224.284 917.872 225.352C916.544 226.419 915.561 227.819 914.923 229.551C914.285 231.283 913.966 233.151 913.966 235.156C913.966 237.161 914.285 239.023 914.923 240.742C915.561 242.461 916.544 243.848 917.872 244.902C919.2 245.957 920.893 246.484 922.95 246.484ZM943.58 250V220H948.033V224.531H948.346C948.893 223.047 949.882 221.842 951.314 220.918C952.747 219.993 954.361 219.531 956.158 219.531C956.497 219.531 956.92 219.538 957.428 219.551C957.936 219.564 958.32 219.583 958.58 219.609V224.297C958.424 224.258 958.066 224.199 957.506 224.121C956.959 224.03 956.38 223.984 955.768 223.984C954.309 223.984 953.007 224.29 951.861 224.902C950.729 225.501 949.83 226.335 949.166 227.402C948.515 228.457 948.189 229.661 948.189 231.016V250H943.58ZM968.341 239.062L968.263 233.359H969.2L982.325 220H988.028L974.044 234.141H973.653L968.341 239.062ZM964.044 250V210H968.653V250H964.044ZM983.106 250L971.388 235.156L974.669 231.953L988.966 250H983.106ZM1000.84 244.531L1000.52 246.641C1000.3 248.125 999.964 249.714 999.508 251.406C999.065 253.099 998.603 254.694 998.121 256.191C997.639 257.689 997.242 258.88 996.93 259.766H993.414C993.583 258.932 993.805 257.832 994.078 256.465C994.352 255.098 994.625 253.568 994.898 251.875C995.185 250.195 995.419 248.477 995.602 246.719L995.836 244.531H1000.84ZM367.901 287V290.906H352.354V287H367.901ZM356.886 279.812H361.495V308.406C361.495 309.708 361.684 310.685 362.062 311.336C362.452 311.974 362.947 312.404 363.546 312.625C364.158 312.833 364.802 312.937 365.479 312.937C365.987 312.937 366.404 312.911 366.729 312.859C367.055 312.794 367.315 312.742 367.511 312.703L368.448 316.844C368.136 316.961 367.7 317.078 367.14 317.195C366.58 317.326 365.87 317.391 365.011 317.391C363.709 317.391 362.433 317.111 361.183 316.551C359.946 315.991 358.917 315.138 358.097 313.992C357.289 312.846 356.886 311.401 356.886 309.656V279.812ZM386.7 317.625C383.992 317.625 381.616 316.98 379.571 315.691C377.54 314.402 375.951 312.599 374.806 310.281C373.673 307.964 373.106 305.255 373.106 302.156C373.106 299.031 373.673 296.303 374.806 293.973C375.951 291.642 377.54 289.832 379.571 288.543C381.616 287.254 383.992 286.609 386.7 286.609C389.409 286.609 391.778 287.254 393.81 288.543C395.854 289.832 397.442 291.642 398.575 293.973C399.721 296.303 400.294 299.031 400.294 302.156C400.294 305.255 399.721 307.964 398.575 310.281C397.442 312.599 395.854 314.402 393.81 315.691C391.778 316.98 389.409 317.625 386.7 317.625ZM386.7 313.484C388.757 313.484 390.45 312.957 391.778 311.902C393.106 310.848 394.09 309.461 394.728 307.742C395.366 306.023 395.685 304.161 395.685 302.156C395.685 300.151 395.366 298.283 394.728 296.551C394.09 294.819 393.106 293.419 391.778 292.352C390.45 291.284 388.757 290.75 386.7 290.75C384.643 290.75 382.95 291.284 381.622 292.352C380.294 293.419 379.311 294.819 378.673 296.551C378.035 298.283 377.716 300.151 377.716 302.156C377.716 304.161 378.035 306.023 378.673 307.742C379.311 309.461 380.294 310.848 381.622 311.902C382.95 312.957 384.643 313.484 386.7 313.484ZM422.799 317V287H427.252V291.531H427.564C428.111 290.047 429.101 288.842 430.533 287.918C431.965 286.993 433.58 286.531 435.377 286.531C435.715 286.531 436.139 286.538 436.646 286.551C437.154 286.564 437.538 286.583 437.799 286.609V291.297C437.643 291.258 437.285 291.199 436.725 291.121C436.178 291.03 435.598 290.984 434.986 290.984C433.528 290.984 432.226 291.29 431.08 291.902C429.947 292.501 429.049 293.335 428.385 294.402C427.734 295.457 427.408 296.661 427.408 298.016V317H422.799ZM454.928 317.625C452.037 317.625 449.544 316.987 447.447 315.711C445.364 314.422 443.756 312.625 442.623 310.32C441.503 308.003 440.943 305.307 440.943 302.234C440.943 299.161 441.503 296.453 442.623 294.109C443.756 291.753 445.331 289.917 447.35 288.602C449.381 287.273 451.751 286.609 454.459 286.609C456.021 286.609 457.564 286.87 459.088 287.391C460.611 287.911 461.998 288.758 463.248 289.93C464.498 291.089 465.494 292.625 466.236 294.539C466.979 296.453 467.35 298.81 467.35 301.609V303.562H444.225V299.578H462.662C462.662 297.885 462.324 296.375 461.646 295.047C460.982 293.719 460.032 292.671 458.795 291.902C457.571 291.134 456.126 290.75 454.459 290.75C452.623 290.75 451.035 291.206 449.693 292.117C448.365 293.016 447.343 294.187 446.627 295.633C445.911 297.078 445.553 298.628 445.553 300.281V302.938C445.553 305.203 445.943 307.124 446.725 308.699C447.519 310.262 448.619 311.453 450.025 312.273C451.432 313.081 453.066 313.484 454.928 313.484C456.139 313.484 457.232 313.315 458.209 312.977C459.199 312.625 460.051 312.104 460.768 311.414C461.484 310.711 462.037 309.839 462.428 308.797L466.881 310.047C466.412 311.557 465.624 312.885 464.518 314.031C463.411 315.164 462.044 316.049 460.416 316.687C458.788 317.313 456.959 317.625 454.928 317.625ZM483.189 317.703C481.288 317.703 479.563 317.345 478.014 316.629C476.464 315.9 475.234 314.852 474.322 313.484C473.411 312.104 472.955 310.437 472.955 308.484C472.955 306.766 473.294 305.372 473.971 304.305C474.648 303.224 475.553 302.378 476.686 301.766C477.818 301.154 479.068 300.698 480.436 300.398C481.816 300.086 483.202 299.839 484.596 299.656C486.419 299.422 487.896 299.246 489.029 299.129C490.175 298.999 491.008 298.784 491.529 298.484C492.063 298.185 492.33 297.664 492.33 296.922V296.766C492.33 294.839 491.803 293.341 490.748 292.273C489.706 291.206 488.124 290.672 486.002 290.672C483.801 290.672 482.076 291.154 480.826 292.117C479.576 293.081 478.697 294.109 478.189 295.203L473.814 293.641C474.596 291.818 475.637 290.398 476.939 289.383C478.255 288.354 479.687 287.638 481.236 287.234C482.799 286.818 484.335 286.609 485.846 286.609C486.809 286.609 487.916 286.727 489.166 286.961C490.429 287.182 491.646 287.645 492.818 288.348C494.003 289.051 494.986 290.112 495.768 291.531C496.549 292.951 496.939 294.852 496.939 297.234V317H492.33V312.937H492.096C491.783 313.589 491.262 314.285 490.533 315.027C489.804 315.77 488.834 316.401 487.623 316.922C486.412 317.443 484.934 317.703 483.189 317.703ZM483.893 313.562C485.715 313.562 487.252 313.204 488.502 312.488C489.765 311.772 490.715 310.848 491.354 309.715C492.005 308.582 492.33 307.391 492.33 306.141V301.922C492.135 302.156 491.705 302.371 491.041 302.566C490.39 302.749 489.635 302.911 488.775 303.055C487.929 303.185 487.102 303.302 486.295 303.406C485.501 303.497 484.856 303.576 484.361 303.641C483.163 303.797 482.044 304.051 481.002 304.402C479.973 304.741 479.14 305.255 478.502 305.945C477.877 306.622 477.564 307.547 477.564 308.719C477.564 310.32 478.157 311.531 479.342 312.352C480.54 313.159 482.057 313.562 483.893 313.562ZM509.962 277V317H505.353V277H509.962ZM518.404 317V287H523.014V317H518.404ZM520.748 282C519.85 282 519.075 281.694 518.424 281.082C517.786 280.47 517.467 279.734 517.467 278.875C517.467 278.016 517.786 277.28 518.424 276.668C519.075 276.056 519.85 275.75 520.748 275.75C521.646 275.75 522.415 276.056 523.053 276.668C523.704 277.28 524.029 278.016 524.029 278.875C524.029 279.734 523.704 280.47 523.053 281.082C522.415 281.694 521.646 282 520.748 282ZM530.597 317V313.484L547.628 291.609V291.297H531.144V287H553.565V290.672L537.003 312.391V312.703H554.112V317H530.597ZM572.931 317.625C570.04 317.625 567.547 316.987 565.45 315.711C563.367 314.422 561.759 312.625 560.626 310.32C559.506 308.003 558.946 305.307 558.946 302.234C558.946 299.161 559.506 296.453 560.626 294.109C561.759 291.753 563.334 289.917 565.353 288.602C567.384 287.273 569.754 286.609 572.462 286.609C574.024 286.609 575.567 286.87 577.091 287.391C578.614 287.911 580.001 288.758 581.251 289.93C582.501 291.089 583.497 292.625 584.239 294.539C584.981 296.453 585.353 298.81 585.353 301.609V303.562H562.228V299.578H580.665C580.665 297.885 580.326 296.375 579.649 295.047C578.985 293.719 578.035 292.671 576.798 291.902C575.574 291.134 574.129 290.75 572.462 290.75C570.626 290.75 569.037 291.206 567.696 292.117C566.368 293.016 565.346 294.187 564.63 295.633C563.914 297.078 563.556 298.628 563.556 300.281V302.938C563.556 305.203 563.946 307.124 564.728 308.699C565.522 310.262 566.622 311.453 568.028 312.273C569.435 313.081 571.069 313.484 572.931 313.484C574.142 313.484 575.235 313.315 576.212 312.977C577.201 312.625 578.054 312.104 578.771 311.414C579.487 310.711 580.04 309.839 580.431 308.797L584.884 310.047C584.415 311.557 583.627 312.885 582.521 314.031C581.414 315.164 580.047 316.049 578.419 316.687C576.791 317.313 574.962 317.625 572.931 317.625ZM620.021 317.625C617.312 317.625 614.936 316.98 612.892 315.691C610.86 314.402 609.272 312.599 608.126 310.281C606.993 307.964 606.427 305.255 606.427 302.156C606.427 299.031 606.993 296.303 608.126 293.973C609.272 291.642 610.86 289.832 612.892 288.543C614.936 287.254 617.312 286.609 620.021 286.609C622.729 286.609 625.099 287.254 627.13 288.543C629.174 289.832 630.763 291.642 631.896 293.973C633.041 296.303 633.614 299.031 633.614 302.156C633.614 305.255 633.041 307.964 631.896 310.281C630.763 312.599 629.174 314.402 627.13 315.691C625.099 316.98 622.729 317.625 620.021 317.625ZM620.021 313.484C622.078 313.484 623.771 312.957 625.099 311.902C626.427 310.848 627.41 309.461 628.048 307.742C628.686 306.023 629.005 304.161 629.005 302.156C629.005 300.151 628.686 298.283 628.048 296.551C627.41 294.819 626.427 293.419 625.099 292.352C623.771 291.284 622.078 290.75 620.021 290.75C617.963 290.75 616.271 291.284 614.942 292.352C613.614 293.419 612.631 294.819 611.993 296.551C611.355 298.283 611.036 300.151 611.036 302.156C611.036 304.161 611.355 306.023 611.993 307.742C612.631 309.461 613.614 310.848 614.942 311.902C616.271 312.957 617.963 313.484 620.021 313.484ZM659.557 304.734V287H664.166V317H659.557V311.922H659.244C658.541 313.445 657.447 314.741 655.963 315.809C654.479 316.863 652.604 317.391 650.338 317.391C648.463 317.391 646.796 316.98 645.338 316.16C643.88 315.327 642.734 314.077 641.9 312.41C641.067 310.73 640.65 308.615 640.65 306.062V287H645.26V305.75C645.26 307.937 645.872 309.682 647.096 310.984C648.333 312.286 649.908 312.937 651.822 312.937C652.968 312.937 654.133 312.645 655.318 312.059C656.516 311.473 657.519 310.574 658.326 309.363C659.146 308.152 659.557 306.609 659.557 304.734ZM672.608 317V287H677.062V291.531H677.374C677.921 290.047 678.91 288.842 680.343 287.918C681.775 286.993 683.39 286.531 685.187 286.531C685.525 286.531 685.948 286.538 686.456 286.551C686.964 286.564 687.348 286.583 687.608 286.609V291.297C687.452 291.258 687.094 291.199 686.534 291.121C685.987 291.03 685.408 290.984 684.796 290.984C683.338 290.984 682.035 291.29 680.89 291.902C679.757 292.501 678.858 293.335 678.194 294.402C677.543 295.457 677.218 296.661 677.218 298.016V317H672.608ZM715.338 317L706.197 287H711.041L717.525 309.969H717.838L724.244 287H729.166L735.494 309.891H735.807L742.291 287H747.135L737.994 317H733.463L726.9 293.953H726.432L719.869 317H715.338ZM764.396 317.625C761.687 317.625 759.311 316.98 757.267 315.691C755.235 314.402 753.647 312.599 752.501 310.281C751.368 307.964 750.802 305.255 750.802 302.156C750.802 299.031 751.368 296.303 752.501 293.973C753.647 291.642 755.235 289.832 757.267 288.543C759.311 287.254 761.687 286.609 764.396 286.609C767.104 286.609 769.474 287.254 771.505 288.543C773.549 289.832 775.138 291.642 776.271 293.973C777.416 296.303 777.989 299.031 777.989 302.156C777.989 305.255 777.416 307.964 776.271 310.281C775.138 312.599 773.549 314.402 771.505 315.691C769.474 316.98 767.104 317.625 764.396 317.625ZM764.396 313.484C766.453 313.484 768.146 312.957 769.474 311.902C770.802 310.848 771.785 309.461 772.423 307.742C773.061 306.023 773.38 304.161 773.38 302.156C773.38 300.151 773.061 298.283 772.423 296.551C771.785 294.819 770.802 293.419 769.474 292.352C768.146 291.284 766.453 290.75 764.396 290.75C762.338 290.75 760.646 291.284 759.317 292.352C757.989 293.419 757.006 294.819 756.368 296.551C755.73 298.283 755.411 300.151 755.411 302.156C755.411 304.161 755.73 306.023 756.368 307.742C757.006 309.461 757.989 310.848 759.317 311.902C760.646 312.957 762.338 313.484 764.396 313.484ZM785.025 317V287H789.479V291.531H789.791C790.338 290.047 791.327 288.842 792.76 287.918C794.192 286.993 795.807 286.531 797.604 286.531C797.942 286.531 798.365 286.538 798.873 286.551C799.381 286.564 799.765 286.583 800.025 286.609V291.297C799.869 291.258 799.511 291.199 798.951 291.121C798.404 291.03 797.825 290.984 797.213 290.984C795.755 290.984 794.452 291.29 793.307 291.902C792.174 292.501 791.275 293.335 790.611 294.402C789.96 295.457 789.635 296.661 789.635 298.016V317H785.025ZM810.099 277V317H805.489V277H810.099ZM829.869 317.625C827.369 317.625 825.162 316.993 823.248 315.73C821.334 314.454 819.837 312.658 818.756 310.34C817.675 308.009 817.135 305.255 817.135 302.078C817.135 298.927 817.675 296.193 818.756 293.875C819.837 291.557 821.34 289.767 823.268 288.504C825.195 287.241 827.421 286.609 829.947 286.609C831.9 286.609 833.443 286.935 834.576 287.586C835.722 288.224 836.594 288.953 837.193 289.773C837.805 290.581 838.281 291.245 838.619 291.766H839.01V277H843.619V317H839.166V312.391H838.619C838.281 312.937 837.799 313.628 837.174 314.461C836.549 315.281 835.657 316.017 834.498 316.668C833.339 317.306 831.796 317.625 829.869 317.625ZM830.494 313.484C832.343 313.484 833.906 313.003 835.182 312.039C836.458 311.062 837.428 309.715 838.092 307.996C838.756 306.264 839.088 304.266 839.088 302C839.088 299.76 838.762 297.801 838.111 296.121C837.46 294.428 836.497 293.113 835.221 292.176C833.945 291.225 832.369 290.75 830.494 290.75C828.541 290.75 826.913 291.251 825.611 292.254C824.322 293.243 823.352 294.591 822.701 296.297C822.063 297.99 821.744 299.891 821.744 302C821.744 304.135 822.07 306.076 822.721 307.82C823.385 309.552 824.361 310.932 825.65 311.961C826.952 312.977 828.567 313.484 830.494 313.484ZM873.951 293.719L869.811 294.891C869.55 294.201 869.166 293.53 868.658 292.879C868.163 292.215 867.486 291.668 866.627 291.238C865.768 290.809 864.667 290.594 863.326 290.594C861.49 290.594 859.96 291.017 858.736 291.863C857.525 292.697 856.92 293.758 856.92 295.047C856.92 296.193 857.337 297.098 858.17 297.762C859.003 298.426 860.305 298.979 862.076 299.422L866.529 300.516C869.212 301.167 871.21 302.163 872.525 303.504C873.84 304.832 874.498 306.544 874.498 308.641C874.498 310.359 874.003 311.896 873.014 313.25C872.037 314.604 870.67 315.672 868.912 316.453C867.154 317.234 865.11 317.625 862.779 317.625C859.719 317.625 857.187 316.961 855.182 315.633C853.176 314.305 851.907 312.365 851.373 309.812L855.748 308.719C856.165 310.333 856.952 311.544 858.111 312.352C859.283 313.159 860.813 313.562 862.701 313.562C864.85 313.562 866.555 313.107 867.818 312.195C869.094 311.271 869.732 310.164 869.732 308.875C869.732 307.833 869.368 306.961 868.639 306.258C867.91 305.542 866.79 305.008 865.279 304.656L860.279 303.484C857.532 302.833 855.514 301.824 854.225 300.457C852.949 299.077 852.311 297.352 852.311 295.281C852.311 293.589 852.786 292.091 853.736 290.789C854.7 289.487 856.008 288.465 857.662 287.723C859.329 286.98 861.217 286.609 863.326 286.609C866.295 286.609 868.626 287.26 870.318 288.562C872.024 289.865 873.235 291.583 873.951 293.719ZM884.796 317.313C883.832 317.313 883.006 316.967 882.315 316.277C881.625 315.587 881.28 314.76 881.28 313.797C881.28 312.833 881.625 312.007 882.315 311.316C883.006 310.626 883.832 310.281 884.796 310.281C885.759 310.281 886.586 310.626 887.276 311.316C887.966 312.007 888.312 312.833 888.312 313.797C888.312 314.435 888.149 315.021 887.823 315.555C887.511 316.089 887.088 316.518 886.554 316.844C886.033 317.156 885.447 317.313 884.796 317.313Z" fill="black"/> -->
<path d="M175.801 101.696L186.998 132.726L182.865 134.217L171.668 103.187L175.801 101.696ZM188.114 122.065C187.182 119.481 187.313 116.949 188.508 114.469C189.704 111.989 191.63 110.269 194.288 109.31C196.958 108.347 199.553 108.442 202.073 109.595C204.569 110.757 206.296 112.667 207.255 115.325C208.223 118.007 208.11 120.588 206.914 123.068C205.702 125.54 203.743 127.265 201.036 128.241C198.354 129.209 195.775 129.102 193.299 127.919C190.833 126.76 189.104 124.809 188.114 122.065ZM192.366 120.614C193.011 122.402 194 123.645 195.331 124.341C196.69 125.041 198.173 125.101 199.777 124.522C201.394 123.939 202.498 122.952 203.09 121.562C203.682 120.172 203.664 118.607 203.037 116.868C202.409 115.128 201.424 113.913 200.08 113.221C198.72 112.521 197.238 112.461 195.634 113.04C194.054 113.61 192.964 114.598 192.364 116.005C191.764 117.412 191.765 118.948 192.366 120.614ZM209.918 104.231L218.288 112.755L219.065 99.0824L228.43 109.096L229.373 97.2106L234.003 95.54L231.574 118.156L222.439 108.434L221.562 121.769L205.27 105.908L209.918 104.231ZM237.649 102.135L245.843 99.1785L247.143 102.779L238.949 105.736L237.649 102.135ZM251.581 93.5576L256.646 107.594L252.512 109.085L247.447 95.0492L245.683 95.6856L244.291 91.8276L246.055 91.1911L243.688 84.6324L247.822 83.1408L250.189 89.6995L253.404 88.5394L254.796 92.3975L251.581 93.5576ZM276.421 91.4463L263.597 96.0736C264.238 97.5035 265.138 98.5008 266.296 99.0655C267.451 99.6179 268.69 99.6554 270.012 99.1781C271.041 98.8069 271.804 98.2548 272.301 97.5218C272.785 96.7932 273.212 95.615 273.579 93.9873L277.773 94.6752C277.565 95.7882 277.281 96.7837 276.919 97.6616C276.553 98.5273 276.105 99.2983 275.574 99.9744C275.038 100.638 274.408 101.212 273.682 101.695C272.957 102.178 272.129 102.588 271.198 102.924C268.528 103.887 266.075 103.803 263.84 102.672C261.6 101.529 259.965 99.5299 258.935 96.6761C257.914 93.8469 257.872 91.2737 258.807 88.9565C259.764 86.6595 261.547 85.0403 264.156 84.0989C266.789 83.1487 269.174 83.2363 271.31 84.3618C273.43 85.4795 275.023 87.5142 276.088 90.4659L276.421 91.4463ZM270.957 89.5973C269.586 87.6004 267.798 86.9997 265.593 87.7952C265.091 87.9764 264.648 88.2262 264.265 88.5445C263.877 88.8506 263.552 89.2169 263.291 89.6434C263.038 90.0533 262.855 90.5067 262.744 91.0037C262.632 91.5007 262.602 92.0307 262.653 92.5937L270.957 89.5973ZM291.583 75.6346L293.565 81.1278C292.207 80.3168 291.076 79.8318 290.175 79.6727C289.281 79.4969 288.338 79.5881 287.346 79.946C285.79 80.5073 284.695 81.5186 284.059 82.9799C283.424 84.4412 283.402 85.9925 283.994 87.6337C284.6 89.3116 285.593 90.5105 286.974 91.2304C288.367 91.9458 289.842 92.0228 291.397 91.4615C292.389 91.1036 293.188 90.5732 293.792 89.8705C294.377 89.1889 294.949 88.069 295.508 86.5107L297.476 91.9671C296.112 93.4422 294.591 94.4825 292.913 95.088C290.145 96.0868 287.508 96.028 285.001 94.9116C282.49 93.7829 280.752 91.8836 279.789 89.2136C278.825 86.5435 278.955 83.9496 280.178 81.4318C281.402 78.914 283.385 77.1602 286.128 76.1702C287.892 75.5338 289.71 75.3552 291.583 75.6346ZM291.562 59.924L295.695 58.4324L300.972 73.0564C301.965 71.2032 303.349 69.9563 305.125 69.3154C307.146 68.5862 308.999 68.6581 310.684 69.5311C312.124 70.2989 313.295 71.932 314.196 74.4306L318.154 85.3985L314.021 86.8901L310.202 76.308C309.685 74.875 309.054 73.9329 308.31 73.4816C307.574 73.0137 306.642 72.983 305.515 73.3896C304.07 73.9111 303.215 74.725 302.949 75.8312C302.701 76.9453 302.974 78.6046 303.77 80.8092L306.892 89.4623L302.759 90.9539L291.562 59.924Z" fill="#9C0000"/>
<path d="M177.683 535.426L182.081 535.807L179.236 568.672L174.838 568.292L175.01 566.307C173.139 567.844 171.114 568.518 168.934 568.33C166.34 568.105 164.268 566.972 162.72 564.93C161.188 562.85 160.547 560.363 160.797 557.471C161.042 554.643 162.096 552.355 163.959 550.608C165.811 548.847 168.014 548.077 170.57 548.299C172.788 548.491 174.694 549.57 176.288 551.538L177.683 535.426ZM165.273 557.858C165.116 559.674 165.474 561.195 166.348 562.421C167.247 563.662 168.456 564.348 169.973 564.479C171.595 564.62 172.953 564.175 174.049 563.146C175.148 562.078 175.774 560.655 175.928 558.878C176.081 557.101 175.709 555.592 174.81 554.351C173.909 553.136 172.66 552.459 171.065 552.321C169.56 552.191 168.252 552.653 167.142 553.707C166.043 554.775 165.42 556.159 165.273 557.858ZM190.781 550.577L189.839 561.454C189.568 564.594 190.671 566.271 193.148 566.485C195.626 566.699 197.001 565.237 197.273 562.098L198.214 551.22L202.592 551.599L201.642 562.574C201.511 564.092 201.209 565.386 200.738 566.456C200.289 567.41 199.583 568.244 198.62 568.958C197.03 570.114 195.093 570.594 192.81 570.396C190.54 570.2 188.721 569.395 187.353 567.983C186.514 567.113 185.948 566.169 185.657 565.151C185.371 564.237 185.302 562.911 185.453 561.173L186.403 550.198L190.781 550.577ZM222.09 553.287L226.487 553.667L224.847 572.62L220.449 572.239L220.621 570.255C218.672 571.785 216.66 572.46 214.584 572.281C211.964 572.054 209.879 570.919 208.331 568.877C206.799 566.797 206.158 564.311 206.408 561.418C206.654 558.577 207.709 556.283 209.572 554.536C211.435 552.789 213.645 552.027 216.2 552.248C218.405 552.439 220.305 553.518 221.899 555.486L222.09 553.287ZM210.884 561.805C210.726 563.621 211.085 565.142 211.959 566.368C212.858 567.609 214.066 568.295 215.584 568.427C217.206 568.567 218.564 568.123 219.66 567.093C220.758 566.025 221.385 564.603 221.538 562.826C221.692 561.048 221.32 559.539 220.421 558.298C219.52 557.083 218.271 556.407 216.676 556.269C215.171 556.138 213.863 556.6 212.752 557.654C211.654 558.722 211.031 560.106 210.884 561.805ZM237.596 540.612L234.751 573.477L230.373 573.098L233.217 540.233L237.596 540.612ZM256.08 585.713L251.702 585.334L254.235 556.069L258.613 556.448L258.435 558.51C260.309 556.934 262.343 556.241 264.535 556.431C267.143 556.657 269.206 557.802 270.727 559.868C272.274 561.923 272.922 564.404 272.67 567.31C272.424 570.151 271.37 572.444 269.507 574.191C267.657 575.926 265.449 576.683 262.88 576.46C260.662 576.269 258.754 575.208 257.156 573.279L256.08 585.713ZM268.193 566.942C268.35 565.126 267.985 563.604 267.098 562.377C266.199 561.136 264.991 560.45 263.473 560.319C261.865 560.179 260.513 560.624 259.417 561.654C258.322 562.683 257.696 564.105 257.538 565.922C257.385 567.699 257.757 569.208 258.656 570.449C259.544 571.663 260.793 572.339 262.401 572.479C263.919 572.61 265.22 572.148 266.305 571.091C267.416 570.037 268.045 568.654 268.193 566.942ZM276.427 567.399C276.663 564.662 277.844 562.419 279.969 560.668C282.094 558.918 284.564 558.164 287.379 558.408C290.207 558.653 292.524 559.827 294.328 561.93C296.107 564.032 296.874 566.49 296.631 569.305C296.385 572.146 295.199 574.441 293.074 576.192C290.937 577.928 288.436 578.672 285.569 578.424C282.728 578.178 280.431 576.999 278.68 574.887C276.926 572.801 276.175 570.305 276.427 567.399ZM280.895 567.865C280.731 569.759 281.108 571.301 282.024 572.491C282.965 573.696 284.286 574.373 285.985 574.52C287.697 574.668 289.114 574.235 290.234 573.221C291.354 572.207 291.994 570.779 292.153 568.937C292.313 567.095 291.928 565.578 290.998 564.387C290.057 563.181 288.737 562.505 287.038 562.358C285.364 562.213 283.96 562.654 282.826 563.68C281.692 564.705 281.048 566.1 280.895 567.865ZM303.699 560.35L307.724 571.598L314.161 559.51L318.465 572.528L324.305 562.133L329.209 562.558L317.522 582.072L313.304 569.415L306.917 581.154L298.776 559.924L303.699 560.35ZM347.913 574.763L334.331 573.587C334.313 575.154 334.712 576.437 335.527 577.435C336.344 578.421 337.453 578.974 338.854 579.095C339.943 579.19 340.867 579.008 341.626 578.551C342.371 578.093 343.252 577.202 344.268 575.878L347.787 578.261C347.132 579.184 346.456 579.969 345.76 580.614C345.065 581.247 344.335 581.759 343.569 582.15C342.804 582.528 341.991 582.785 341.13 582.919C340.269 583.054 339.345 583.078 338.36 582.993C335.532 582.748 333.34 581.644 331.785 579.679C330.231 577.702 329.585 575.202 329.846 572.18C330.106 569.183 331.146 566.829 332.967 565.118C334.798 563.433 337.096 562.711 339.859 562.95C342.648 563.191 344.776 564.271 346.244 566.188C347.7 568.092 348.293 570.607 348.022 573.733L347.913 574.763ZM343.728 570.793C343.321 568.405 341.949 567.111 339.614 566.908C339.083 566.862 338.576 566.904 338.094 567.032C337.614 567.147 337.165 567.343 336.749 567.621C336.347 567.887 335.992 568.222 335.682 568.627C335.373 569.031 335.123 569.5 334.933 570.032L343.728 570.793ZM353.629 564.671L358.007 565.05L357.861 566.743C358.738 565.969 359.501 565.454 360.151 565.196C360.815 564.927 361.581 564.83 362.45 564.905C363.605 565.005 364.779 565.486 365.972 566.347L363.621 570.182C362.842 569.513 362.057 569.145 361.266 569.076C358.879 568.87 357.53 570.57 357.217 574.176L356.367 584.003L351.989 583.624L353.629 564.671Z" fill="url(#paint0_linear_3404_404)"/>
<path d="M505.748 568.597L506.331 574.408C505.212 573.29 504.234 572.544 503.398 572.17C502.574 571.782 501.637 571.64 500.587 571.746C498.942 571.911 497.633 572.625 496.661 573.887C495.688 575.149 495.289 576.649 495.463 578.385C495.642 580.16 496.313 581.564 497.477 582.599C498.654 583.633 500.065 584.067 501.71 583.901C502.759 583.796 503.663 583.476 504.421 582.942C505.154 582.424 505.981 581.477 506.903 580.102L507.483 585.873C505.8 586.972 504.072 587.61 502.297 587.788C499.369 588.082 496.825 587.382 494.666 585.688C492.505 583.982 491.283 581.716 491 578.892C490.716 576.068 491.474 573.583 493.274 571.44C495.074 569.296 497.425 568.078 500.327 567.787C502.193 567.6 504 567.87 505.748 568.597ZM509.945 576.773C509.671 574.04 510.415 571.616 512.179 569.502C513.943 567.388 516.23 566.19 519.042 565.908C521.866 565.624 524.36 566.349 526.523 568.081C528.66 569.816 529.87 572.09 530.152 574.901C530.437 577.738 529.698 580.214 527.934 582.328C526.156 584.43 523.835 585.625 520.972 585.913C518.135 586.197 515.66 585.465 513.547 583.714C511.437 581.989 510.237 579.675 509.945 576.773ZM514.423 576.402C514.613 578.294 515.268 579.739 516.389 580.739C517.538 581.749 518.96 582.169 520.658 581.999C522.368 581.827 523.679 581.139 524.592 579.935C525.505 578.731 525.869 577.209 525.685 575.369C525.5 573.53 524.84 572.111 523.706 571.112C522.558 570.102 521.135 569.682 519.438 569.853C517.767 570.02 516.469 570.714 515.544 571.932C514.62 573.15 514.246 574.64 514.423 576.402ZM533.887 574.369C533.613 571.635 534.357 569.212 536.121 567.098C537.885 564.984 540.172 563.786 542.984 563.503C545.808 563.22 548.302 563.944 550.465 565.677C552.602 567.412 553.812 569.685 554.094 572.497C554.379 575.334 553.64 577.81 551.876 579.923C550.098 582.026 547.778 583.221 544.914 583.508C542.077 583.793 539.602 583.06 537.489 581.309C535.379 579.584 534.179 577.271 533.887 574.369ZM538.365 573.998C538.555 575.889 539.21 577.335 540.331 578.335C541.48 579.345 542.903 579.765 544.6 579.594C546.31 579.422 547.621 578.735 548.534 577.531C549.447 576.327 549.811 574.805 549.627 572.965C549.442 571.125 548.782 569.706 547.648 568.708C546.5 567.698 545.077 567.278 543.38 567.448C541.709 567.616 540.411 568.309 539.486 569.527C538.562 570.746 538.188 572.236 538.365 573.998ZM565.094 591.336L560.722 591.775L557.787 562.547L562.159 562.108L562.366 564.168C563.916 562.271 565.786 561.213 567.975 560.993C570.579 560.732 572.82 561.475 574.697 563.224C576.598 564.956 577.694 567.274 577.986 570.176C578.271 573.013 577.66 575.463 576.152 577.525C574.657 579.572 572.626 580.725 570.061 580.983C567.846 581.205 565.774 580.517 563.847 578.918L565.094 591.336ZM573.518 570.644C573.336 568.83 572.695 567.403 571.596 566.362C570.483 565.309 569.168 564.858 567.652 565.011C566.046 565.172 564.8 565.86 563.914 567.074C563.028 568.289 562.677 569.803 562.859 571.617C563.037 573.391 563.683 574.805 564.796 575.858C565.894 576.886 567.246 577.32 568.853 577.159C570.369 577.006 571.562 576.311 572.432 575.072C573.328 573.83 573.69 572.354 573.518 570.644ZM599.942 568.913L586.378 570.275C586.65 571.818 587.28 573.005 588.266 573.835C589.251 574.652 590.443 574.99 591.843 574.85C592.931 574.741 593.805 574.391 594.466 573.801C595.113 573.213 595.814 572.174 596.567 570.685L600.467 572.374C599.994 573.403 599.476 574.299 598.911 575.063C598.345 575.813 597.722 576.451 597.042 576.978C596.361 577.491 595.61 577.894 594.788 578.185C593.967 578.477 593.064 578.673 592.079 578.772C589.255 579.055 586.897 578.376 585.004 576.734C583.111 575.079 582.012 572.742 581.709 569.723C581.409 566.731 581.995 564.225 583.467 562.206C584.955 560.211 587.078 559.075 589.838 558.798C592.623 558.518 594.915 559.184 596.713 560.797C598.496 562.397 599.545 564.759 599.858 567.881L599.942 568.913ZM595.094 565.788C594.251 563.517 592.663 562.499 590.331 562.733C589.8 562.787 589.31 562.921 588.86 563.136C588.41 563.338 588.005 563.615 587.648 563.965C587.302 564.3 587.015 564.695 586.786 565.15C586.556 565.605 586.398 566.112 586.31 566.67L595.094 565.788ZM603.688 557.937L608.061 557.498L608.231 559.189C608.949 558.266 609.604 557.618 610.195 557.244C610.797 556.857 611.532 556.619 612.4 556.532C613.553 556.416 614.796 556.671 616.128 557.296L614.529 561.501C613.639 560.988 612.8 560.771 612.01 560.851C609.626 561.09 608.615 563.011 608.976 566.612L609.962 576.426L605.589 576.865L603.688 557.937ZM632.256 555.068L636.648 554.627L638.549 573.555L634.157 573.996L633.958 572.014C632.326 573.879 630.474 574.916 628.401 575.124C625.784 575.387 623.525 574.658 621.625 572.939C619.734 571.179 618.643 568.854 618.353 565.965C618.068 563.128 618.679 560.678 620.187 558.616C621.694 556.554 623.724 555.395 626.276 555.139C628.478 554.917 630.545 555.626 632.476 557.264L632.256 555.068ZM622.823 565.516C623.005 567.33 623.639 568.758 624.725 569.801C625.839 570.853 627.153 571.304 628.669 571.152C630.289 570.989 631.541 570.3 632.427 569.086C633.309 567.833 633.66 566.319 633.482 564.544C633.304 562.769 632.658 561.355 631.545 560.302C630.434 559.275 629.082 558.842 627.488 559.002C625.985 559.153 624.786 559.849 623.89 561.09C623.008 562.344 622.652 563.819 622.823 565.516ZM647.085 557.701L648.576 572.548L644.204 572.987L642.713 558.14L640.847 558.328L640.437 554.247L642.303 554.059L641.606 547.121L645.979 546.682L646.675 553.62L650.076 553.279L650.486 557.36L647.085 557.701ZM657.422 552.541L659.323 571.469L654.95 571.908L653.05 552.98L657.422 552.541ZM651.598 545.176C651.522 544.411 651.734 543.723 652.235 543.11C652.736 542.497 653.375 542.151 654.153 542.073C654.943 541.994 655.645 542.204 656.258 542.706C656.869 543.194 657.215 543.833 657.294 544.623C657.374 545.414 657.163 546.115 656.662 546.728C656.174 547.34 655.534 547.686 654.744 547.765C653.954 547.844 653.252 547.633 652.639 547.132C652.026 546.631 651.679 545.979 651.598 545.176ZM665.312 551.748L671.277 561.887L675.087 550.767L680.004 550.273L672.202 571.491L660.415 552.24L665.312 551.748ZM700.569 558.808L687.004 560.17C687.277 561.713 687.907 562.899 688.893 563.73C689.878 564.547 691.07 564.885 692.469 564.744C693.558 564.635 694.432 564.286 695.092 563.696C695.74 563.107 696.441 562.069 697.194 560.58L701.093 562.269C700.621 563.298 700.102 564.194 699.538 564.957C698.972 565.708 698.349 566.346 697.669 566.872C696.988 567.386 696.236 567.788 695.415 568.08C694.594 568.372 693.691 568.567 692.706 568.666C689.882 568.95 687.523 568.271 685.631 566.629C683.738 564.974 682.639 562.637 682.336 559.618C682.035 556.625 682.621 554.119 684.094 552.1C685.581 550.106 687.705 548.97 690.465 548.693C693.25 548.413 695.542 549.079 697.339 550.691C699.123 552.292 700.171 554.653 700.485 557.776L700.569 558.808ZM695.721 555.683C694.878 553.412 693.29 552.394 690.958 552.628C690.427 552.681 689.936 552.815 689.487 553.031C689.036 553.233 688.632 553.509 688.275 553.859C687.929 554.195 687.641 554.59 687.412 555.045C687.183 555.5 687.025 556.006 686.937 556.565L695.721 555.683Z" fill="#FF0000"/>
<path d="M804.69 569.27L800.323 568.776L803.627 539.588L807.993 540.082L807.761 542.139C809.676 540.613 811.727 539.974 813.914 540.221C816.514 540.516 818.547 541.715 820.012 543.821C821.505 545.916 822.087 548.412 821.759 551.311C821.439 554.144 820.324 556.409 818.415 558.107C816.521 559.792 814.293 560.49 811.731 560.2C809.519 559.95 807.639 558.839 806.093 556.869L804.69 569.27ZM817.293 550.825C817.498 549.013 817.174 547.483 816.319 546.233C815.453 544.969 814.264 544.251 812.75 544.08C811.145 543.898 809.782 544.307 808.66 545.307C807.538 546.307 806.874 547.713 806.669 549.524C806.469 551.297 806.801 552.815 807.667 554.079C808.523 555.316 809.753 556.025 811.358 556.207C812.871 556.378 814.184 555.95 815.296 554.923C816.434 553.899 817.1 552.533 817.293 550.825ZM843.487 554.713L829.941 553.18C829.882 554.746 830.246 556.039 831.035 557.058C831.825 558.065 832.919 558.647 834.316 558.806C835.403 558.929 836.332 558.772 837.102 558.335C837.859 557.896 838.763 557.029 839.814 555.732L843.269 558.207C842.59 559.113 841.893 559.879 841.18 560.506C840.469 561.12 839.725 561.613 838.949 561.983C838.175 562.341 837.356 562.576 836.491 562.688C835.627 562.8 834.703 562.8 833.72 562.689C830.899 562.37 828.737 561.208 827.235 559.203C825.733 557.185 825.153 554.669 825.494 551.655C825.833 548.666 826.934 546.34 828.8 544.678C830.675 543.042 832.991 542.38 835.747 542.692C838.529 543.007 840.628 544.142 842.045 546.098C843.45 548.039 843.976 550.569 843.623 553.687L843.487 554.713ZM839.408 550.635C839.064 548.237 837.727 546.907 835.398 546.643C834.868 546.583 834.36 546.611 833.875 546.726C833.392 546.829 832.939 547.013 832.515 547.28C832.106 547.535 831.742 547.861 831.422 548.257C831.102 548.653 830.84 549.115 830.636 549.642L839.408 550.635ZM847.52 553.99C847.829 551.26 849.069 549.049 851.239 547.355C853.409 545.661 855.898 544.973 858.706 545.291C861.526 545.61 863.811 546.845 865.559 548.995C867.282 551.143 867.984 553.62 867.666 556.428C867.346 559.261 866.1 561.525 863.93 563.219C861.748 564.898 859.227 565.576 856.368 565.252C853.535 564.931 851.27 563.692 849.575 561.535C847.877 559.403 847.192 556.889 847.52 553.99ZM851.975 554.573C851.761 556.462 852.096 558.014 852.981 559.228C853.89 560.457 855.192 561.168 856.887 561.36C858.595 561.553 860.022 561.158 861.169 560.174C862.315 559.19 862.993 557.779 863.201 555.942C863.409 554.105 863.064 552.578 862.166 551.363C861.257 550.133 859.955 549.422 858.26 549.231C856.591 549.042 855.176 549.445 854.015 550.44C852.854 551.436 852.174 552.814 851.975 554.573ZM874.44 577.165L870.073 576.671L873.377 547.482L877.743 547.976L877.511 550.033C879.426 548.507 881.477 547.868 883.664 548.116C886.264 548.41 888.297 549.61 889.762 551.715C891.255 553.81 891.837 556.307 891.509 559.205C891.189 562.038 890.074 564.304 888.165 566.001C886.271 567.687 884.043 568.384 881.481 568.095C879.269 567.844 877.389 566.734 875.843 564.764L874.44 577.165ZM887.043 558.719C887.248 556.908 886.924 555.377 886.069 554.127C885.203 552.863 884.014 552.145 882.5 551.974C880.895 551.792 879.532 552.202 878.41 553.202C877.288 554.201 876.624 555.607 876.419 557.418C876.219 559.191 876.551 560.709 877.417 561.974C878.273 563.211 879.503 563.92 881.108 564.101C882.621 564.273 883.934 563.845 885.046 562.817C886.184 561.793 886.85 560.427 887.043 558.719ZM903.146 536.797L899.436 569.576L895.07 569.082L898.779 536.303L903.146 536.797ZM923.135 563.728L909.589 562.195C909.529 563.76 909.894 565.053 910.683 566.073C911.473 567.08 912.567 567.662 913.964 567.82C915.051 567.943 915.979 567.786 916.75 567.349C917.507 566.911 918.411 566.043 919.462 564.747L922.916 567.222C922.237 568.127 921.541 568.894 920.828 569.521C920.117 570.135 919.373 570.627 918.597 570.998C917.823 571.356 917.003 571.591 916.139 571.703C915.275 571.814 914.351 571.815 913.367 571.703C910.547 571.384 908.385 570.222 906.882 568.218C905.381 566.2 904.801 563.684 905.142 560.669C905.48 557.681 906.582 555.355 908.448 553.692C910.323 552.057 912.639 551.395 915.395 551.707C918.176 552.022 920.276 553.157 921.692 555.113C923.097 557.054 923.624 559.583 923.271 562.701L923.135 563.728ZM919.056 559.65C918.711 557.252 917.375 555.921 915.046 555.658C914.515 555.598 914.008 555.625 913.523 555.741C913.04 555.843 912.586 556.028 912.163 556.294C911.754 556.55 911.39 556.875 911.07 557.271C910.75 557.668 910.488 558.129 910.284 558.657L919.056 559.65ZM953.742 558.838L958.399 565.97L958.596 565.795C959.25 565.227 959.87 564.669 960.457 564.119C961.043 563.57 961.611 563.011 962.16 562.445L964.767 565.806C964.346 566.282 963.799 566.83 963.126 567.448C962.467 568.068 961.679 568.778 960.762 569.579L965.538 577.058L959.909 576.421L957.336 572.414C954.272 574.938 951.259 576.031 948.296 575.696C945.644 575.396 943.489 574.294 941.83 572.389C940.212 570.476 939.545 568.265 939.829 565.755C940.168 562.766 941.885 560.445 944.981 558.79L947.093 557.673C947.12 557.663 947.169 557.636 947.24 557.591C947.31 557.547 947.409 557.486 947.536 557.409C945.795 555.076 945.04 552.887 945.271 550.843C945.5 548.824 946.346 547.256 947.809 546.137C949.298 545.022 951.103 544.584 953.225 544.824C955.282 545.057 956.914 545.864 958.121 547.245C959.327 548.627 959.824 550.256 959.612 552.132C959.465 553.425 958.964 554.555 958.108 555.519C957.265 556.485 955.81 557.592 953.742 558.838ZM949.864 560.974L949.592 561.12C947.597 562.192 946.219 563.078 945.458 563.778C944.711 564.479 944.288 565.264 944.19 566.131C944.049 567.373 944.418 568.568 945.297 569.715C946.22 570.829 947.302 571.456 948.544 571.596C950.291 571.794 952.432 570.877 954.968 568.844L949.864 560.974ZM951.482 555.359L951.882 555.129C952.57 554.722 953.141 554.367 953.595 554.065C954.05 553.749 954.382 553.479 954.591 553.254C955.033 552.819 955.294 552.252 955.373 551.554C955.462 550.764 955.269 550.094 954.794 549.542C954.32 548.99 953.636 548.664 952.743 548.563C951.928 548.471 951.214 548.645 950.6 549.087C949.99 549.503 949.642 550.086 949.557 550.836C949.457 551.716 949.709 552.623 950.311 553.556L951.283 555.041C951.314 555.111 951.381 555.216 951.482 555.359ZM985.085 560.125L988.813 571.476L995.567 559.562L999.526 572.688L1005.64 562.451L1010.53 563.005L998.331 582.204L994.449 569.441L987.754 581.007L980.175 559.57L985.085 560.125ZM1010.81 572.472C1011.12 569.742 1012.36 567.53 1014.53 565.836C1016.7 564.143 1019.19 563.455 1022 563.773C1024.82 564.092 1027.1 565.327 1028.85 567.477C1030.58 569.624 1031.28 572.102 1030.96 574.909C1030.64 577.743 1029.39 580.007 1027.22 581.7C1025.04 583.38 1022.52 584.058 1019.66 583.734C1016.83 583.413 1014.56 582.174 1012.87 580.017C1011.17 577.885 1010.49 575.37 1010.81 572.472ZM1015.27 573.055C1015.05 574.944 1015.39 576.495 1016.27 577.709C1017.18 578.939 1018.49 579.65 1020.18 579.842C1021.89 580.035 1023.32 579.64 1024.46 578.656C1025.61 577.672 1026.29 576.261 1026.49 574.424C1026.7 572.586 1026.36 571.06 1025.46 569.845C1024.55 568.615 1023.25 567.904 1021.55 567.712C1019.88 567.523 1018.47 567.927 1017.31 568.922C1016.15 569.918 1015.47 571.295 1015.27 573.055ZM1036.67 565.964L1041.04 566.458L1040.85 568.146C1041.74 567.396 1042.52 566.901 1043.18 566.661C1043.85 566.409 1044.62 566.332 1045.48 566.43C1046.63 566.561 1047.79 567.072 1048.96 567.965L1046.51 571.736C1045.75 571.047 1044.98 570.658 1044.19 570.569C1041.81 570.299 1040.41 571.963 1040.01 575.56L1038.9 585.361L1034.53 584.866L1036.67 565.964ZM1058.09 554.334L1055.83 574.324L1062.68 568.907L1068.54 569.57L1059.43 576.579L1067 588.541L1061.33 587.9L1055.99 579.216L1055.21 579.836L1054.38 587.113L1050.02 586.619L1053.73 553.84L1058.09 554.334ZM1087.32 582.311L1073.77 580.777C1073.72 582.343 1074.08 583.636 1074.87 584.656C1075.66 585.662 1076.75 586.245 1078.15 586.403C1079.24 586.526 1080.17 586.369 1080.94 585.932C1081.69 585.493 1082.6 584.626 1083.65 583.33L1087.1 585.804C1086.42 586.71 1085.73 587.477 1085.01 588.104C1084.3 588.718 1083.56 589.21 1082.78 589.581C1082.01 589.939 1081.19 590.174 1080.33 590.285C1079.46 590.397 1078.54 590.397 1077.55 590.286C1074.73 589.967 1072.57 588.805 1071.07 586.8C1069.57 584.783 1068.99 582.267 1069.33 579.252C1069.67 576.263 1070.77 573.938 1072.63 572.275C1074.51 570.639 1076.83 569.978 1079.58 570.29C1082.36 570.604 1084.46 571.74 1085.88 573.695C1087.28 575.636 1087.81 578.166 1087.46 581.284L1087.32 582.311ZM1083.24 578.232C1082.9 575.835 1081.56 574.504 1079.23 574.24C1078.7 574.18 1078.19 574.208 1077.71 574.323C1077.23 574.426 1076.77 574.611 1076.35 574.877C1075.94 575.132 1075.58 575.458 1075.26 575.854C1074.94 576.25 1074.67 576.712 1074.47 577.239L1083.24 578.232ZM1093.3 572.373L1097.67 572.867L1097.48 574.556C1098.37 573.806 1099.15 573.31 1099.81 573.07C1100.48 572.819 1101.25 572.742 1102.11 572.84C1103.26 572.97 1104.43 573.482 1105.6 574.374L1103.14 578.146C1102.38 577.457 1101.61 577.068 1100.82 576.978C1098.44 576.709 1097.04 578.373 1096.64 581.969L1095.53 591.77L1091.16 591.276L1093.3 572.373ZM887.205 611.82C887.514 609.09 888.754 606.879 890.924 605.185C893.095 603.491 895.584 602.803 898.391 603.121C901.212 603.44 903.496 604.675 905.245 606.825C906.967 608.973 907.67 611.45 907.352 614.258C907.031 617.091 905.786 619.355 903.615 621.049C901.434 622.728 898.913 623.406 896.054 623.082C893.22 622.762 890.956 621.522 889.261 619.365C887.562 617.233 886.877 614.719 887.205 611.82ZM891.66 612.403C891.446 614.292 891.782 615.844 892.667 617.058C893.576 618.287 894.878 618.998 896.573 619.19C898.281 619.383 899.708 618.988 900.854 618.004C902.001 617.02 902.678 615.609 902.886 613.772C903.094 611.935 902.749 610.408 901.852 609.193C900.942 607.963 899.64 607.252 897.946 607.061C896.276 606.872 894.861 607.275 893.7 608.27C892.54 609.266 891.859 610.644 891.66 612.403ZM914.654 605.492L918.381 616.843L925.135 604.929L929.094 618.055L935.206 607.818L940.097 608.372L927.899 627.571L924.017 614.807L917.322 626.374L909.744 604.936L914.654 605.492ZM943.066 608.708L947.452 609.204L947.254 610.951C948.952 609.61 950.759 609.048 952.674 609.265C954.873 609.514 956.509 610.4 957.582 611.923C958.509 613.221 958.822 615.202 958.521 617.867L957.209 629.454L952.823 628.957L954.018 618.4C954.229 616.536 954.116 615.22 953.679 614.45C953.256 613.668 952.379 613.202 951.046 613.051C949.597 612.887 948.514 613.249 947.798 614.138C947.096 615.015 946.612 616.631 946.345 618.986L945.313 628.107L940.927 627.611L943.066 608.708ZM980.908 623.605L967.362 622.072C967.302 623.638 967.667 624.93 968.456 625.95C969.246 626.957 970.34 627.539 971.737 627.697C972.824 627.82 973.753 627.663 974.523 627.226C975.28 626.788 976.184 625.921 977.235 624.624L980.69 627.099C980.01 628.005 979.314 628.771 978.601 629.398C977.89 630.012 977.146 630.504 976.37 630.875C975.596 631.233 974.777 631.468 973.912 631.58C973.048 631.692 972.124 631.692 971.141 631.581C968.32 631.261 966.158 630.099 964.656 628.095C963.154 626.077 962.574 623.561 962.915 620.547C963.254 617.558 964.355 615.232 966.221 613.569C968.096 611.934 970.412 611.272 973.168 611.584C975.95 611.899 978.049 613.034 979.465 614.99C980.871 616.931 981.397 619.461 981.044 622.579L980.908 623.605ZM976.829 619.527C976.485 617.129 975.148 615.798 972.819 615.535C972.289 615.475 971.781 615.502 971.296 615.618C970.813 615.72 970.359 615.905 969.936 616.172C969.527 616.427 969.163 616.752 968.843 617.149C968.523 617.545 968.261 618.007 968.057 618.534L976.829 619.527ZM1002.39 601.369L1006.78 601.865L1003.07 634.644L998.683 634.148L998.907 632.168C996.996 633.655 994.953 634.276 992.78 634.03C990.192 633.737 988.151 632.549 986.657 630.467C985.18 628.347 984.605 625.845 984.932 622.96C985.251 620.139 986.365 617.88 988.274 616.183C990.171 614.472 992.394 613.76 994.943 614.049C997.155 614.299 999.032 615.429 1000.57 617.438L1002.39 601.369ZM989.396 623.465C989.191 625.276 989.509 626.806 990.35 628.055C991.216 629.319 992.406 630.037 993.92 630.208C995.537 630.391 996.907 629.983 998.029 628.983C999.156 627.944 999.819 626.538 1000.02 624.766C1000.22 622.993 999.888 621.475 999.022 620.211C998.153 618.972 996.923 618.263 995.332 618.083C993.831 617.913 992.511 618.34 991.373 619.364C990.247 620.403 989.587 621.77 989.396 623.465Z" fill="#00B3FF"/>
<path d="M861.623 100.889L865.958 100.172L866.236 101.849C866.894 100.882 867.506 100.193 868.071 99.7829C868.648 99.3576 869.366 99.0737 870.227 98.9313C871.37 98.7421 872.627 98.917 873.996 99.4559L872.668 103.754C871.748 103.299 870.896 103.136 870.113 103.266C867.749 103.657 866.863 105.638 867.454 109.209L869.064 118.94L864.728 119.658L861.623 100.889ZM894.927 106.069L881.477 108.295C881.847 109.817 882.551 110.961 883.589 111.726C884.624 112.479 885.835 112.741 887.222 112.511C888.302 112.332 889.152 111.928 889.773 111.297C890.382 110.668 891.015 109.587 891.672 108.053L895.671 109.49C895.265 110.547 894.805 111.474 894.29 112.272C893.773 113.057 893.192 113.734 892.547 114.303C891.9 114.858 891.176 115.308 890.375 115.652C889.574 115.995 888.685 116.248 887.709 116.41C884.909 116.873 882.512 116.346 880.519 114.828C878.523 113.297 877.278 111.035 876.783 108.042C876.292 105.074 876.716 102.536 878.057 100.427C879.414 98.3416 881.461 97.0725 884.197 96.6198C886.959 96.1628 889.289 96.6814 891.186 98.1757C893.068 99.6592 894.265 101.949 894.777 105.045L894.927 106.069ZM889.889 103.26C888.902 101.048 887.253 100.133 884.941 100.516C884.414 100.603 883.933 100.768 883.499 101.012C883.062 101.242 882.676 101.544 882.342 101.916C882.018 102.273 881.756 102.686 881.557 103.154C881.357 103.623 881.231 104.138 881.179 104.701L889.889 103.26ZM909.4 96.2705L906.132 98.7712C905.375 97.7086 904.579 97.2463 903.744 97.3845C903.346 97.4504 903.028 97.6416 902.79 97.9581C902.55 98.2618 902.464 98.6192 902.532 99.0303C902.651 99.7497 903.604 100.324 905.391 100.755C907.854 101.363 909.553 102.019 910.487 102.723C911.422 103.426 912.006 104.484 912.24 105.897C912.54 107.708 912.123 109.335 910.989 110.776C909.882 112.147 908.411 112.984 906.574 113.288C903.426 113.809 900.944 112.643 899.125 109.789L902.541 107.462C903.204 108.276 903.69 108.783 904 108.983C904.608 109.384 905.278 109.524 906.01 109.402C907.474 109.16 908.096 108.371 907.875 107.035C907.748 106.264 907.063 105.638 905.822 105.157C905.349 105.011 904.878 104.872 904.407 104.738C903.936 104.605 903.458 104.466 902.972 104.322C901.611 103.914 900.623 103.444 900.007 102.913C899.222 102.237 898.728 101.283 898.524 100.05C898.254 98.4184 898.589 96.9771 899.53 95.7259C900.497 94.4705 901.796 93.7079 903.428 93.4379C905.83 93.0404 907.821 93.9847 909.4 96.2705ZM918.332 91.5064L921.437 110.275L917.102 110.992L913.997 92.2238L918.332 91.5064ZM912.05 84.5281C911.925 83.7702 912.093 83.0693 912.554 82.4256C913.014 81.7818 913.63 81.3961 914.401 81.2686C915.185 81.1389 915.898 81.3046 916.542 81.7656C917.184 82.2137 917.57 82.8296 917.699 83.6132C917.829 84.3968 917.663 85.1105 917.202 85.7543C916.754 86.396 916.138 86.7816 915.355 86.9113C914.571 87.0409 913.857 86.8753 913.213 86.4143C912.57 85.9533 912.182 85.3246 912.05 84.5281ZM925.88 76.1029L931.265 108.649L926.929 109.366L921.544 76.8202L925.88 76.1029ZM937.987 88.2544L941.092 107.023L936.757 107.74L933.651 88.9717L937.987 88.2544ZM931.705 81.2761C931.579 80.5182 931.747 79.8173 932.208 79.1735C932.669 78.5297 933.285 78.1441 934.056 78.0166C934.839 77.8869 935.553 78.0526 936.197 78.5136C936.839 78.9617 937.224 79.5776 937.354 80.3612C937.484 81.1448 937.318 81.8585 936.857 82.5023C936.409 83.144 935.793 83.5296 935.009 83.6593C934.226 83.7889 933.512 83.6233 932.868 83.1623C932.224 82.7013 931.837 82.0725 931.705 81.2761ZM962.292 94.9231L948.842 97.1486C949.213 98.671 949.917 99.8149 950.954 100.58C951.989 101.333 953.2 101.594 954.588 101.365C955.667 101.186 956.517 100.782 957.139 100.151C957.747 99.5223 958.38 98.4409 959.037 96.9069L963.036 98.3436C962.63 99.4006 962.17 100.328 961.655 101.126C961.139 101.911 960.558 102.588 959.913 103.156C959.266 103.712 958.541 104.162 957.741 104.506C956.94 104.849 956.051 105.102 955.075 105.263C952.274 105.727 949.877 105.2 947.884 103.682C945.889 102.151 944.643 99.8889 944.148 96.8958C943.657 93.9283 944.082 91.3901 945.422 89.281C946.78 87.1955 948.826 85.9264 951.563 85.4736C954.325 85.0166 956.654 85.5353 958.551 87.0295C960.433 88.513 961.63 90.8028 962.142 93.8987L962.292 94.9231ZM957.254 92.1141C956.268 89.9017 954.618 88.9868 952.306 89.3694C951.779 89.4565 951.299 89.6218 950.864 89.8653C950.427 90.096 950.041 90.3974 949.707 90.7695C949.383 91.1266 949.122 91.5394 948.922 92.008C948.722 92.4765 948.596 92.9923 948.544 93.5552L957.254 92.1141ZM965.33 83.7302L969.685 83.0097L969.972 84.7439C971.239 82.9901 972.823 81.9559 974.724 81.6413C976.908 81.28 978.724 81.6856 980.172 82.8583C981.419 83.853 982.261 85.6735 982.699 88.3198L984.602 99.8236L980.247 100.544L978.513 90.0616C978.207 88.2118 977.738 86.9761 977.108 86.3546C976.488 85.7181 975.516 85.5093 974.193 85.7282C972.754 85.9663 971.811 86.6106 971.365 87.6611C970.929 88.6966 970.905 90.3834 971.292 92.7214L972.79 101.778L968.435 102.499L965.33 83.7302ZM992.129 83.4535L994.564 98.1752L990.229 98.8926L987.793 84.1709L985.943 84.4769L985.274 80.4304L987.123 80.1243L985.985 73.2452L990.321 72.5278L991.459 79.407L994.831 78.849L995.501 82.8956L992.129 83.4535Z" fill="#595959"/>
<path d="M506.273 54.6754L503.934 87.5807L499.551 87.2692L501.889 54.3639L506.273 54.6754ZM509.274 78.2875C509.469 75.547 510.615 73.2853 512.713 71.5025C514.811 69.7196 517.269 68.9284 520.088 69.1287C522.919 69.3299 525.253 70.4683 527.09 72.5438C528.9 74.6175 529.705 77.0636 529.505 79.882C529.303 82.7264 528.153 85.04 526.055 86.8228C523.945 88.5918 521.455 89.3742 518.585 89.1702C515.74 88.9681 513.426 87.8246 511.643 85.7397C509.857 83.6809 509.068 81.1968 509.274 78.2875ZM513.75 78.6839C513.615 80.5801 514.015 82.1163 514.949 83.2922C515.909 84.4831 517.24 85.1389 518.941 85.2599C520.656 85.3817 522.065 84.9271 523.17 83.896C524.274 82.865 524.892 81.4273 525.023 79.583C525.154 77.7387 524.746 76.2281 523.798 75.0512C522.838 73.8603 521.508 73.2045 519.807 73.0835C518.131 72.9645 516.734 73.4265 515.616 74.4696C514.497 75.5127 513.875 76.9175 513.75 78.6839ZM536.435 70.8192L540.633 82.0043L546.883 69.8191L551.387 82.7686L557.066 72.2855L561.976 72.6344L550.59 92.326L546.179 79.7355L539.972 91.5714L531.506 70.4689L536.435 70.8192ZM562.637 80.1416L571.326 80.7591L571.054 84.5776L562.365 83.9601L562.637 80.1416ZM591.153 85.2816L577.554 84.3151C577.56 85.882 577.978 87.1584 578.809 88.1442C579.641 89.1171 580.758 89.6533 582.161 89.753C583.252 89.8306 584.173 89.635 584.924 89.1662C585.662 88.6965 586.529 87.7922 587.525 86.4532L591.08 88.7814C590.439 89.7148 589.776 90.5096 589.09 91.1658C588.404 91.8089 587.682 92.3319 586.922 92.7348C586.163 93.1247 585.354 93.3936 584.495 93.5414C583.637 93.6892 582.713 93.728 581.726 93.6579C578.895 93.4566 576.687 92.3859 575.101 90.4457C573.517 88.4926 572.833 86.0029 573.048 82.9767C573.261 79.9764 574.265 77.6067 576.059 75.8676C577.865 74.1553 580.151 73.3975 582.917 73.5941C585.71 73.7926 587.855 74.8392 589.352 76.734C590.837 78.6148 591.468 81.1203 591.245 84.2504L591.153 85.2816ZM586.907 81.377C586.463 78.9958 585.072 77.7221 582.734 77.5559C582.201 77.5181 581.695 77.567 581.216 77.7026C580.737 77.8252 580.292 78.0285 579.88 78.3126C579.482 78.5845 579.131 78.9251 578.828 79.3343C578.525 79.7435 578.283 80.2158 578.101 80.7512L586.907 81.377ZM596.712 75.1033L601.115 75.4162L600.991 77.1696C602.631 75.7589 604.413 75.1219 606.335 75.2585C608.543 75.4154 610.214 76.2326 611.349 77.71C612.33 78.9676 612.726 80.9342 612.536 83.6097L611.709 95.2405L607.306 94.9276L608.059 84.3294C608.192 82.4591 608.024 81.1483 607.556 80.397C607.101 79.6337 606.205 79.2045 604.867 79.1094C603.412 79.006 602.345 79.4132 601.667 80.3309C601.002 81.2366 600.585 82.8713 600.417 85.2352L599.767 94.3918L595.364 94.0788L596.712 75.1033ZM635.143 88.4081L621.545 87.4416C621.551 89.0085 621.969 90.2849 622.8 91.2707C623.631 92.2436 624.748 92.7799 626.151 92.8795C627.242 92.9571 628.163 92.7615 628.915 92.2927C629.653 91.8231 630.52 90.9187 631.516 89.5797L635.071 91.9079C634.43 92.8414 633.766 93.6362 633.08 94.2923C632.395 94.9354 631.672 95.4584 630.913 95.8613C630.154 96.2512 629.345 96.5201 628.486 96.6679C627.627 96.8157 626.704 96.8545 625.717 96.7844C622.886 96.5831 620.677 95.5124 619.092 93.5723C617.508 91.6191 616.823 89.1294 617.038 86.1032C617.252 83.1029 618.255 80.7332 620.05 78.9941C621.855 77.2819 624.142 76.5241 626.908 76.7207C629.7 76.9191 631.845 77.9657 633.342 79.8605C634.827 81.7413 635.458 84.2468 635.236 87.3769L635.143 88.4081ZM630.898 84.5036C630.453 82.1223 629.062 80.8486 626.724 80.6825C626.192 80.6446 625.686 80.6935 625.206 80.8291C624.728 80.9517 624.282 81.1551 623.871 81.4391C623.473 81.711 623.122 82.0516 622.819 82.4608C622.516 82.8701 622.273 83.3424 622.092 83.8777L630.898 84.5036ZM640.703 78.2298L645.086 78.5413L644.966 80.2363C645.831 79.4493 646.587 78.9221 647.232 78.6547C647.892 78.3752 648.657 78.2664 649.527 78.3282C650.683 78.4104 651.864 78.8729 653.07 79.7157L650.778 83.5864C649.989 82.9299 649.199 82.5735 648.407 82.5172C646.017 82.3473 644.694 84.0678 644.437 87.6784L643.738 97.5169L639.354 97.2054L640.703 78.2298ZM672.662 99.1222C672.598 100.018 672.51 100.802 672.397 101.473C672.296 102.157 672.175 102.756 672.034 103.268C671.621 104.674 670.923 105.858 669.941 106.82C668.086 108.672 665.659 109.492 662.659 109.278C660.126 109.098 658.09 108.268 656.55 106.788C654.961 105.266 654.125 103.255 654.042 100.756L658.445 101.068C658.547 102.016 658.775 102.756 659.129 103.291C659.954 104.537 661.237 105.222 662.977 105.346C666.185 105.574 667.929 103.72 668.209 99.7848L668.397 97.1352C666.53 98.7909 664.46 99.538 662.187 99.3764C659.603 99.1927 657.552 98.1071 656.036 96.1196C654.508 94.1052 653.845 91.6758 654.047 88.8314C654.244 86.0649 655.184 83.769 656.867 81.9437C658.675 80.0097 660.943 79.1396 663.671 79.3335C666.061 79.5033 667.984 80.5343 669.443 82.4262L669.595 80.2832L673.978 80.5948L672.662 99.1222ZM669.093 89.8224C669.224 87.9781 668.835 86.4689 667.927 85.2947C667.007 84.0937 665.768 83.4378 664.209 83.327C662.547 83.2089 661.191 83.7326 660.142 84.8981C659.194 85.9403 658.657 87.338 658.532 89.0914C658.41 90.8188 658.744 92.2655 659.536 93.4313C660.398 94.7066 661.667 95.4038 663.342 95.5228C665.018 95.6419 666.386 95.1256 667.447 93.974C668.422 92.9337 668.97 91.5498 669.093 89.8224ZM684.394 96.8624L676.959 80.8066L682.044 81.168L687.074 92.4906L693.266 81.9655L698.214 82.3172L681.013 110.544L676.007 110.188L684.394 96.8624Z" fill="#D654EB"/>
<defs>
<linearGradient id="paint0_linear_3404_404" x1="156.543" y1="550.949" x2="377.866" y2="576.289" gradientUnits="userSpaceOnUse">
<stop stop-color="#FF5C00"/>
<stop offset="1" stop-color="#0029FF"/>
</linearGradient>
</defs>
</svg>
